<svg version="1.2" xmlns="http://www.w3.org/2000/svg" viewBox="0 0 860 484">

    <defs>
        <radialGradient id="g1" cx="0" cy="0" r="1" gradientUnits="userSpaceOnUse"
            gradientTransform="matrix(36.918,0,0,36.918,80.542,268.137)">
            <stop offset="0" stop-color="#f6c900" />
            <stop offset=".298" stop-color="#f6c900" />
            <stop offset="1" stop-color="#f39200" />
        </radialGradient>
        <radialGradient id="g2" cx="0" cy="0" r="1" gradientUnits="userSpaceOnUse"
            gradientTransform="matrix(47.741,0,0,47.741,107.983,261.441)">
            <stop offset="0" stop-color="#f6c900" />
            <stop offset=".298" stop-color="#f6c900" />
            <stop offset="1" stop-color="#f39200" />
        </radialGradient>
        <radialGradient id="g3" cx="0" cy="0" r="1" gradientUnits="userSpaceOnUse"
            gradientTransform="matrix(49.047,0,0,49.047,121.048,251.389)">
            <stop offset="0" stop-color="#f6c900" />
            <stop offset=".298" stop-color="#f6c900" />
            <stop offset="1" stop-color="#f39200" />
        </radialGradient>
        <radialGradient id="g4" cx="0" cy="0" r="1" gradientUnits="userSpaceOnUse"
            gradientTransform="matrix(49.329,0,0,49.329,136.533,238.22)">
            <stop offset="0" stop-color="#f6c900" />
            <stop offset=".298" stop-color="#f6c900" />
            <stop offset="1" stop-color="#f39200" />
        </radialGradient>
        <radialGradient id="g5" cx="0" cy="0" r="1" gradientUnits="userSpaceOnUse"
            gradientTransform="matrix(50.706,0,0,50.706,151.507,224.112)">
            <stop offset="0" stop-color="#f6c900" />
            <stop offset=".298" stop-color="#f6c900" />
            <stop offset="1" stop-color="#f39200" />
        </radialGradient>
        <radialGradient id="g6" cx="0" cy="0" r="1" gradientUnits="userSpaceOnUse"
            gradientTransform="matrix(51.364,0,0,51.364,168.289,211.387)">
            <stop offset="0" stop-color="#f6c900" />
            <stop offset=".298" stop-color="#f6c900" />
            <stop offset="1" stop-color="#f39200" />
        </radialGradient>
        <radialGradient id="g7" cx="0" cy="0" r="1" gradientUnits="userSpaceOnUse"
            gradientTransform="matrix(53.746,0,0,53.746,182.971,200.212)">
            <stop offset="0" stop-color="#f6c900" />
            <stop offset=".298" stop-color="#f6c900" />
            <stop offset="1" stop-color="#f39200" />
        </radialGradient>
        <radialGradient id="g8" cx="0" cy="0" r="1" gradientUnits="userSpaceOnUse"
            gradientTransform="matrix(44.209,0,0,44.209,184,184.829)">
            <stop offset="0" stop-color="#f6c900" />
            <stop offset=".298" stop-color="#f6c900" />
            <stop offset="1" stop-color="#f39200" />
        </radialGradient>
        <radialGradient id="g9" cx="0" cy="0" r="1" gradientUnits="userSpaceOnUse"
            gradientTransform="matrix(30.981,0,0,30.981,180.302,167.918)">
            <stop offset="0" stop-color="#f6c900" />
            <stop offset=".298" stop-color="#f6c900" />
            <stop offset="1" stop-color="#f39200" />
        </radialGradient>
        <radialGradient id="g10" cx="0" cy="0" r="1" gradientUnits="userSpaceOnUse"
            gradientTransform="matrix(17.118,0,0,17.118,179.8,155.56)">
            <stop offset="0" stop-color="#f6c900" />
            <stop offset=".298" stop-color="#f6c900" />
            <stop offset="1" stop-color="#f39200" />
        </radialGradient>
        <radialGradient id="g11" cx="0" cy="0" r="1" gradientUnits="userSpaceOnUse"
            gradientTransform="matrix(29.987,0,0,29.987,491.447,270.241)">
            <stop offset="0" stop-color="#f6c900" />
            <stop offset=".298" stop-color="#f6c900" />
            <stop offset="1" stop-color="#f39200" />
        </radialGradient>
        <radialGradient id="g12" cx="0" cy="0" r="1" gradientUnits="userSpaceOnUse"
            gradientTransform="matrix(58.451,0,0,58.451,486.742,262.598)">
            <stop offset="0" stop-color="#f6c900" />
            <stop offset=".298" stop-color="#f6c900" />
            <stop offset="1" stop-color="#f39200" />
        </radialGradient>
        <radialGradient id="g13" cx="0" cy="0" r="1" gradientUnits="userSpaceOnUse"
            gradientTransform="matrix(86.028,0,0,86.028,478.81,255.688)">
            <stop offset="0" stop-color="#f6c900" />
            <stop offset=".298" stop-color="#f6c900" />
            <stop offset="1" stop-color="#f39200" />
        </radialGradient>
        <radialGradient id="g14" cx="0" cy="0" r="1" gradientUnits="userSpaceOnUse"
            gradientTransform="matrix(118.811,0,0,118.811,465.144,247.633)">
            <stop offset="0" stop-color="#f6c900" />
            <stop offset=".298" stop-color="#f6c900" />
            <stop offset="1" stop-color="#f39200" />
        </radialGradient>
        <radialGradient id="g15" cx="0" cy="0" r="1" gradientUnits="userSpaceOnUse"
            gradientTransform="matrix(134.297,0,0,134.297,468.791,240.039)">
            <stop offset="0" stop-color="#f6c900" />
            <stop offset=".298" stop-color="#f6c900" />
            <stop offset="1" stop-color="#f39200" />
        </radialGradient>
        <radialGradient id="g16" cx="0" cy="0" r="1" gradientUnits="userSpaceOnUse"
            gradientTransform="matrix(68.182,0,0,68.182,389.519,218.053)">
            <stop offset="0" stop-color="#f6c900" />
            <stop offset=".298" stop-color="#f6c900" />
            <stop offset="1" stop-color="#f39200" />
        </radialGradient>
        <radialGradient id="g17" cx="0" cy="0" r="1" gradientUnits="userSpaceOnUse"
            gradientTransform="matrix(58.49,0,0,58.49,589.165,208.102)">
            <stop offset="0" stop-color="#f6c900" />
            <stop offset=".298" stop-color="#f6c900" />
            <stop offset="1" stop-color="#f39200" />
        </radialGradient>
        <radialGradient id="g18" cx="0" cy="0" r="1" gradientUnits="userSpaceOnUse"
            gradientTransform="matrix(58.971,0,0,58.971,393.257,184.928)">
            <stop offset="0" stop-color="#f6c900" />
            <stop offset=".298" stop-color="#f6c900" />
            <stop offset="1" stop-color="#f39200" />
        </radialGradient>
        <radialGradient id="g19" cx="0" cy="0" r="1" gradientUnits="userSpaceOnUse"
            gradientTransform="matrix(41.805,0,0,41.805,394.651,172.502)">
            <stop offset="0" stop-color="#f6c900" />
            <stop offset=".298" stop-color="#f6c900" />
            <stop offset="1" stop-color="#f39200" />
        </radialGradient>
        <radialGradient id="g20" cx="0" cy="0" r="1" gradientUnits="userSpaceOnUse"
            gradientTransform="matrix(58.798,0,0,58.798,597.99,181.365)">
            <stop offset="0" stop-color="#f6c900" />
            <stop offset=".298" stop-color="#f6c900" />
            <stop offset="1" stop-color="#f39200" />
        </radialGradient>
        <radialGradient id="g21" cx="0" cy="0" r="1" gradientUnits="userSpaceOnUse"
            gradientTransform="matrix(50.03,0,0,50.03,608.002,170.784)">
            <stop offset="0" stop-color="#f6c900" />
            <stop offset=".298" stop-color="#f6c900" />
            <stop offset="1" stop-color="#f39200" />
        </radialGradient>
        <radialGradient id="g22" cx="0" cy="0" r="1" gradientUnits="userSpaceOnUse"
            gradientTransform="matrix(29.827,0,0,29.827,400.366,164.758)">
            <stop offset="0" stop-color="#f6c900" />
            <stop offset=".298" stop-color="#f6c900" />
            <stop offset="1" stop-color="#f39200" />
        </radialGradient>
        <radialGradient id="g23" cx="0" cy="0" r="1" gradientUnits="userSpaceOnUse"
            gradientTransform="matrix(15.39,0,0,15.39,405.843,154.97)">
            <stop offset="0" stop-color="#f6c900" />
            <stop offset=".298" stop-color="#f6c900" />
            <stop offset="1" stop-color="#f39200" />
        </radialGradient>
        <radialGradient id="g24" cx="0" cy="0" r="1" gradientUnits="userSpaceOnUse"
            gradientTransform="matrix(16.133,0,0,16.133,607.888,135.718)">
            <stop offset="0" stop-color="#f6c900" />
            <stop offset=".298" stop-color="#f6c900" />
            <stop offset="1" stop-color="#f39200" />
        </radialGradient>
        <radialGradient id="g25" cx="0" cy="0" r="1" gradientUnits="userSpaceOnUse"
            gradientTransform="matrix(41.12,0,0,41.12,612.746,160.803)">
            <stop offset="0" stop-color="#f6c900" />
            <stop offset=".298" stop-color="#f6c900" />
            <stop offset="1" stop-color="#f39200" />
        </radialGradient>
        <radialGradient id="g26" cx="0" cy="0" r="1" gradientUnits="userSpaceOnUse"
            gradientTransform="matrix(32.195,0,0,32.195,608.687,148.902)">
            <stop offset="0" stop-color="#f6c900" />
            <stop offset=".298" stop-color="#f6c900" />
            <stop offset="1" stop-color="#f39200" />
        </radialGradient>
        <radialGradient id="g27" cx="0" cy="0" r="1" gradientUnits="userSpaceOnUse"
            gradientTransform="matrix(29.643,0,0,29.643,768.078,268.677)">
            <stop offset="0" stop-color="#f6c900" />
            <stop offset=".298" stop-color="#f6c900" />
            <stop offset="1" stop-color="#f39200" />
        </radialGradient>
        <radialGradient id="g28" cx="0" cy="0" r="1" gradientUnits="userSpaceOnUse"
            gradientTransform="matrix(34.093,0,0,34.093,749.159,263.805)">
            <stop offset="0" stop-color="#f6c900" />
            <stop offset=".298" stop-color="#f6c900" />
            <stop offset="1" stop-color="#f39200" />
        </radialGradient>
        <radialGradient id="g29" cx="0" cy="0" r="1" gradientUnits="userSpaceOnUse"
            gradientTransform="matrix(25.348,0,0,25.348,744.479,250.421)">
            <stop offset="0" stop-color="#f6c900" />
            <stop offset=".298" stop-color="#f6c900" />
            <stop offset="1" stop-color="#f39200" />
        </radialGradient>
        <radialGradient id="g30" cx="0" cy="0" r="1" gradientUnits="userSpaceOnUse"
            gradientTransform="matrix(14.803,0,0,14.803,738.23,234.308)">
            <stop offset="0" stop-color="#f6c900" />
            <stop offset=".298" stop-color="#f6c900" />
            <stop offset="1" stop-color="#f39200" />
        </radialGradient>
        <radialGradient id="g31" cx="0" cy="0" r="1" gradientUnits="userSpaceOnUse"
            gradientTransform="matrix(7.924,0,0,7.924,731.442,220.139)">
            <stop offset="0" stop-color="#f6c900" />
            <stop offset=".298" stop-color="#f6c900" />
            <stop offset="1" stop-color="#f39200" />
        </radialGradient>
        <radialGradient id="g32" cx="0" cy="0" r="1" gradientUnits="userSpaceOnUse"
            gradientTransform="matrix(50.808,0,0,50.808,495.857,158.883)">
            <stop offset="0" stop-color="#f6c900" />
            <stop offset=".298" stop-color="#f6c900" />
            <stop offset="1" stop-color="#f39200" />
        </radialGradient>
        <radialGradient id="g33" cx="0" cy="0" r="1" gradientUnits="userSpaceOnUse"
            gradientTransform="matrix(66.579,0,0,66.579,296.669,217.697)">
            <stop offset="0" stop-color="#f6c900" />
            <stop offset=".298" stop-color="#f6c900" />
            <stop offset="1" stop-color="#f39200" />
        </radialGradient>
        <radialGradient id="g34" cx="0" cy="0" r="1" gradientUnits="userSpaceOnUse"
            gradientTransform="matrix(46.05,0,0,46.05,671.047,217.162)">
            <stop offset="0" stop-color="#f6c900" />
            <stop offset=".298" stop-color="#f6c900" />
            <stop offset="1" stop-color="#f39200" />
        </radialGradient>
    </defs>

    <style>
        .s0 {
            fill: #f39200
        }

        .s1 {
            fill: url(#g1)
        }

        .s2 {
            fill: url(#g2)
        }

        .s3 {
            fill: url(#g3)
        }

        .s4 {
            fill: url(#g4)
        }

        .s5 {
            fill: url(#g5)
        }

        .s6 {
            fill: url(#g6)
        }

        .s7 {
            fill: url(#g7)
        }

        .s8 {
            fill: url(#g8)
        }

        .s9 {
            fill: url(#g9)
        }

        .s10 {
            fill: url(#g10)
        }

        .s11 {
            fill: url(#g11)
        }

        .s12 {
            fill: url(#g12)
        }

        .s13 {
            fill: url(#g13)
        }

        .s14 {
            fill: url(#g14)
        }

        .s15 {
            fill: url(#g15)
        }

        .s16 {
            fill: url(#g16)
        }

        .s17 {
            fill: url(#g17)
        }

        .s18 {
            fill: url(#g18)
        }

        .s19 {
            fill: url(#g19)
        }

        .s20 {
            fill: url(#g20)
        }

        .s21 {
            fill: url(#g21)
        }

        .s22 {
            fill: url(#g22)
        }

        .s23 {
            fill: url(#g23)
        }

        .s24 {
            fill: url(#g24)
        }

        .s25 {
            fill: url(#g25)
        }

        .s26 {
            fill: url(#g26)
        }

        .s27 {
            fill: url(#g27)
        }

        .s28 {
            fill: url(#g28)
        }

        .s29 {
            fill: url(#g29)
        }

        .s30 {
            fill: url(#g30)
        }

        .s31 {
            fill: url(#g31)
        }

        .s32 {
            fill: url(#g32)
        }

        .s33 {
            fill: url(#g33)
        }

        .s34 {
            fill: url(#g34)
        }
    </style>

    <g id="icon">
        <g id="coordileras">
            <path id="path260" class="s1"
                d="m28.7 274.6c36.2-12.4 77.6 0 77.6 0h26.1c-21.3-9.7-39.9-12.9-55.3-12.9-30.7 0-48.4 12.9-48.4 12.9z" />

            <path id="path282" class="s2"
                d="m41.8 255.5c77.5-7.6 107.6 19.1 107.6 19.1h24.8c-34.2-20.8-65.3-26.3-88.8-26.3-26.8 0-43.6 7.2-43.6 7.2z" />

            <path id="path304" class="s3"
                d="m53.9 241.8c85.5-6.7 125.8 26.8 125.8 26.8l8.5-8.5c-39.4-20.4-70.9-26-93.5-26-26.6 0-40.8 7.7-40.8 7.7z" />

            <path id="path326" class="s4"
                d="m68.7 227c83.5-0.8 125.2 27.6 125.2 27.6l10.5-9.6c-45-18.4-78.4-23.1-100.8-23.1-23.5 0-34.9 5.1-34.9 5.1z" />

            <path id="path348" class="s5"
                d="m81.4 214.8c74.7-2.5 129.7 24.2 129.7 24.2l10.5-8.7c-47.5-16.7-81.4-21.1-103.9-21.1-25.4 0-36.3 5.6-36.3 5.6z" />

            <path id="path370" class="s6"
                d="m97 201.2c90.3 4.6 131.2 24 131.2 24l11.4-8.4c-44.2-15.4-80.2-19.3-105-19.3-24.1 0-37.6 3.7-37.6 3.7z" />

            <path id="path392" class="s7"
                d="m107.9 192.9c90-3 138.7 19 138.7 19l11.5-7.4-3.2-3.1c-41.4-10.1-75-12.9-99.6-12.9-30.8 0-47.4 4.4-47.4 4.4z" />

            <path id="path414" class="s8"
                d="m122 182.8c69.7-4 124 10 124 10l-13.6-12.4c-15.3-2.6-30.8-3.5-45.1-3.5-36.3 0-65.3 5.9-65.3 5.9z" />

            <path id="path436" class="s9"
                d="m136.8 172.9c0 0 62.4-5.8 87 0l-11.3-9.7c0 0-4.4-0.3-11.4-0.3-15.1 0-42.3 1.4-64.3 10z" />

            <path id="path458" class="s10"
                d="m156.1 160.6c11.6-3.2 47.4-3.4 47.4-3.4-5.1-4.9-11.3-6.7-17.5-6.7-14.9 0-29.9 10.1-29.9 10.1z" />


            <path id="path480" class="s11" d="m449.3 274.9l84.3 0.1c0 0-22.4-9.5-47.4-9.5-12.4 0-25.5 2.3-36.9 9.4z" />
            <path id="path502" class="s12"
                d="m405 274.9l27.2 0.1c0 0 55.7-32.5 118.7 0l17.6-4.9c0 0-33.9-19.9-79.9-19.9-25.4 0-54.4 6-83.6 24.7z" />
            <path id="path524" class="s13"
                d="m358.7 275h36.2c87.3-62 180.8-7.2 180.8-7.2l23.2-8.4c-35.4-17-70-23-101.5-23-79.5 0-138.7 38.6-138.7 38.6z" />
            <path id="path546" class="s14"
                d="m299.4 275h48.7c138.6-88.3 259.8-19.3 259.8-19.3l23-11.4c-47.2-17.5-92-24-132.5-24-117.5 0-199 54.7-199 54.7z" />
            <path id="path568" class="s15"
                d="m290.8 249.8l-8.7 25.2 3.9-0.1c173.1-108.3 351.7-34.5 351.7-34.5l17.8-12.7c-52.9-16.6-103.6-22.6-149.7-22.6-125.1 0-215 44.7-215 44.7z" />
            <path id="path590" class="s16"
                d="m305.7 222.7l-10.1 17.2c81.7-41.8 187.8-41.4 187.8-41.4-9.5-1.6-19.9-2.3-30.5-2.3-66.7 0-147.2 26.5-147.2 26.5z" />
            <path id="path612" class="s17"
                d="m507.8 196.3c0 0 98 5.5 152.7 26.8l10-12.1c-1.3-2.9-71.9-17.9-126.4-17.9-13.5 0-26 0.9-36.3 3.2z" />
            <path id="path634" class="s18"
                d="m469.8 157.9c1.3 32.4-6.1 29.4-20.5 30-31.4 1.1-121.4 8.3-121.4 8.3l-13.6 15.7c98.1-24.4 157.9-21.4 157.9-21.4v-32.6z" />
            <path id="path656" class="s19"
                d="m449.7 157.9c0.7 22.5-9.5 22-19.7 21-10.2-0.9-77.4-5-77.4-5l-15.2 13.2c18.6-2.9 114.5-5.4 114.5-5.4v-23.8z" />
            <path id="path678" class="s20"
                d="m518.2 157.9v30.1c0 0 57.4-7.7 155.5 16.8l4.1-15.1c0 0-96.1-5.6-136.7-5.9-14.8-0.1-20.6-0.4-20.4-25.9z" />
            <path id="path700" class="s21"
                d="m538.4 157.9v19.7c0 0 120.5 3.1 139.2 6l-4.3-14.5c0 0-102.7 5.8-112.9 5.8-12.8-0.1-20.3-0.9-19.7-17z" />
            <path id="path722" class="s22"
                d="m376 157.9l-17.3 11.6c9.2-3.5 83.3 2.1 83.3 2.1-35.2-12.9-59.6-13.7-64.9-13.7q-1.1 0-1.1 0z" />
            <path id="path744" class="s23"
                d="m384.6 153.2c13.9 0 42.5 6.6 42.5 6.6-10.3-7.6-19.9-9.7-27.4-9.7-9.1 0-15.1 3.1-15.1 3.1z" />
            <path id="path766" class="s24"
                d="m585.8 141.6c0 0 30.3-8.3 44.1-8.3 0 0-6.1-3.4-15.4-3.4-7.9 0-18.1 2.4-28.7 11.7z" />



            <path id="path788" class="s25"
                d="m555.3 169.9c32.9-6.1 114.9-6.5 114.9-6.5l-9.2-11.5q-6.2-0.2-12.2-0.2c-60.1 0-93.5 18.2-93.5 18.2z" />
            <path id="path810" class="s26" d="m564.5 159.8c0 0 53.1-20.3 88.4-13.1l-17.1-8.7c0 0-45.6 0-71.3 21.8z" />
            <path id="path832" class="s27"
                d="m726.6 274.9h22c25.3-11.1 60.9 0 60.9 0-18.7-9.3-34.1-12.4-46.4-12.4-24.5 0-36.5 12.4-36.5 12.4z" />
            <path id="path854" class="s28"
                d="m702.3 275h15.8c0 0 22.6-27.1 78-13.3 0 0-19.4-9.1-42.5-9.1-17.1 0-36.4 5-51.3 22.4z" />
            <path id="path876" class="s29"
                d="m716.2 246.1l-6 14.7c0 0 19.3-21.2 68.6-12.9 0 0-13.7-7.9-33.5-7.9-8.7 0-18.7 1.6-29.1 6.1z" />
            <path id="path898" class="s30"
                d="m720.5 229l-2.4 10.9c10.7-8 40.3-5.4 40.3-5.4-14.2-4.9-25.7-5.8-32.2-5.8-3.7 0-5.7 0.3-5.7 0.3z" />
            <path id="path920" class="s31" d="m721.3 222.7c4.4-1.6 20.3 2.2 20.3 2.2-10.2-6.8-19.8-9.6-19.8-9.6z" />
            <path id="path942" class="s32" d="m424 157.9l3.1 1.9h137.4l3.2-1.9z" />


        </g>

        <g id="rio">
            <path id="path964" class="s33" d="m221.6 274.6h18c0 0 19.1-68.4 132.1-113.8 0 0-115.6 37.1-150.1 113.8z" />
            <path id="path986" class="s34" fill=""
                d="m640.9 274.9h17.8c90.5-91.3 8.3-115.5 8.3-115.5 75.1 36.5-26.1 115.5-26.1 115.5z" />
        </g>
    </g>

    <g id="letter">
        <g id="bigger">
            <path id="A" class="s0"
                d="m30.3 328.3h-4.6l1.2-2.9 13.9-30.5 0.6-1.3h2.8l0.6 1.3 13.9 30.5 1.3 2.9h-4.7l-0.6-1.3-11.9-26.2-11.9 26.2z" />
            <path id="N" class="s0"
                d="m96.2 328.3h-4.3v-2.1-30.5-2.1h3.3l0.6 0.9 18.5 25.3 0.1-24.1v-2.1h4.3v2.1l-0.1 30.5v2.1h-3.3l-0.6-0.9-18.5-25.3v24.1z" />
            <path id="E" class="s0"
                d="m181.7 293.6v4.1h-2.1-19.3v11.2h13.5 2.1v4.1h-2.1-13.5v11.2h19.3 2.1v4.1h-2.1-21.4-2.1v-2.1-13.2-4.1-13.2-2.1h2.1 21.4z" />
            <path id="I" class="s0" d="m216.2 293.6h4.3v2.1 30.5 2.1h-4.3v-2.1-30.5z" />
            <path id="path36" class="s0"
                d="m282.9 320.9q-1.1 1.9-3.1 3.5-4.8 3.9-10.6 3.9-6.4-0.1-11-4.9-4.9-5.1-4.9-12.4 0-7.5 4.9-12.6 4.6-4.8 11-4.8 3.6 0 7.1 1.7 4.6 2.3 6.6 5.8l-3.9 1.9q-0.6-1.3-2-2.4-3.4-2.9-7.8-2.9-4.4 0.1-7.8 3.4-3.9 4-3.9 9.9 0 5 3.1 8.9 3.5 4.3 8.6 4.3 2.2 0 4.4-0.9 3.9-1.5 5.6-4.4z" />
            <path id="C" class="s0"
                d="m393.5 320.9q-1.1 1.9-3.1 3.5-4.8 3.9-10.6 3.9-6.4-0.1-11-4.9-5-5.1-5-12.4 0-7.5 5-12.6 4.6-4.8 11-4.8 3.6 0 7.1 1.7 4.6 2.3 6.5 5.8l-3.8 1.9q-0.6-1.3-2-2.4-3.4-2.9-7.8-2.9-4.5 0.1-7.8 3.4-3.9 4-3.9 9.9 0 5 3.1 8.9 3.4 4.3 8.6 4.3 2.2 0 4.4-0.9 3.8-1.5 5.6-4.4z" />
            <path id="C" class="s0"
                d="m430.8 298.4q4.6-4.7 11-4.8 6.4 0.1 11.1 4.9 5 5.1 5 12.5 0 7.3-5 12.5-4.7 4.8-11.1 4.8-6.4-0.1-11.1-4.9-4.9-5.1-4.9-12.4 0-7.4 5-12.6zm2.4 21.5q3.5 4.3 8.6 4.3 4.5-0.1 7.9-3.4 3.9-4 3.9-9.8 0-5.1-3.1-9-3.5-4.3-8.7-4.3-4.4 0.1-7.8 3.4-3.9 4-3.9 9.9 0 5 3.1 8.9z" />
            <path id="O" class="s0" d="m493.1 293.6h4.3v2.1 28.5h14.9 2.2v4.1h-2.2-17-2.2v-2.1-30.5z" />
            <path id="L" class="s0"
                d="m550.4 298.4q4.7-4.7 11.1-4.8 6.4 0.1 11.1 4.9 4.9 5.1 4.9 12.5 0 7.3-4.9 12.5-4.7 4.8-11.1 4.8-6.4-0.1-11.1-4.9-4.9-5.1-4.9-12.4 0-7.4 4.9-12.6zm2.4 21.5q3.5 4.3 8.7 4.3 4.5-0.1 7.8-3.4 3.9-4 3.9-9.8 0-5.1-3.1-9-3.4-4.3-8.6-4.3-4.5 0.1-7.9 3.4-3.9 4-3.9 9.9 0 5 3.1 8.9z" />
            <path id="O" class="s0"
                d="m617 328.3h-4.2v-2.1-30.5-2.1h3.5l0.5 1.3 12.5 26.3 12.5-26.3 0.5-1.3h3.5v2.1l0.1 30.5v2.1h-4.3v-2.1-21l-10.3 21.8-0.6 1.3h-2.8l-0.5-1.3-10.4-21.8v21z" />
            <path id="B" class="s0"
                d="m706.3 311.3q3.7 2.9 3.7 7.3 0 3.4-2.5 6.1-3.3 3.6-8.4 3.6h-13.7-2.1v-2.1-13.2-2-15.3-2h2.2l11.6-0.1q4.1 0 7.3 2.5 3.7 2.9 3.7 7.2-0.1 4-3.4 7 0.8 0.5 1.6 1zm-9.2-2.4q2.1 0 3.8-1 2.9-1.7 2.9-4.6 0-1.7-1.2-3.2-2.1-2.4-5.5-2.4h-9.5v11.3zm-9.5 15.3l11.4-0.1q2.1 0 3.8-1 2.9-1.7 2.9-4.6 0-1.7-1.2-3.2-2-2.4-5.5-2.4h-1.9-9.5z" />
            <path id="I" class="s0" d="m743.4 293.6h4.3v2.1 30.5 2.1h-4.3v-2.1-30.5z" />
            <path id="A" class="s0"
                d="m783 328.3h-4.7l1.3-2.9 13.9-30.5 0.6-1.3h2.8l0.5 1.3 13.9 30.5 1.3 2.9h-4.6l-0.6-1.3-11.9-26.2-11.9 26.2z" />
        </g>

        <g id="smaller">

            <g text="Asociación">
                <path id="A" class="s0"
                    d="m34.4 343.8l10.2 22.1h-2.9l-2.9-6.5h-8.7l-2.9 6.5h-2.9zm0 5.6l-3.6 7.9h7.1z" />


                <path id="s" class="s0"
                    d="m46.1 363.7l2.1-1.3q0.6 1 1.4 1.6 0.9 0.5 2.1 0.5 1.2 0 1.9-0.6 0.8-0.5 0.8-1.4 0-0.7-0.5-1.2-0.5-0.4-1.7-0.8l-0.4-0.2q-5.1-1.6-5.1-4.2 0-1.7 1.3-2.9 1.4-1.1 3.6-1.1 1.8 0 3.1 0.7 1.3 0.7 1.9 2l-2 1.1q-0.4-0.9-1.2-1.4-0.8-0.5-1.9-0.5-1.1 0-1.8 0.6-0.6 0.5-0.6 1.4 0 1.2 2.8 2 0.5 0.2 0.8 0.3 2.3 0.7 3.1 1.6 0.9 0.9 0.9 2.4 0 1.8-1.4 3-1.4 1.2-3.7 1.2-1.9 0-3.3-0.7-1.3-0.7-2.2-2.1z" />


                <path id="o" class="s0"
                    d="m60.2 359.3q0-1.5 0.5-2.8 0.6-1.3 1.7-2.3 1.1-1 2.4-1.5 1.4-0.6 3-0.6 1.5 0 2.9 0.6 1.3 0.5 2.4 1.5 1.1 1 1.7 2.3 0.6 1.3 0.6 2.8 0 1.5-0.6 2.7-0.6 1.3-1.7 2.3-1.1 1.1-2.5 1.6-1.3 0.6-2.8 0.6-1.6 0-3-0.6-1.3-0.5-2.4-1.5-1.1-1.1-1.7-2.3-0.5-1.3-0.5-2.8zm2.5 0q0 2.1 1.5 3.6 1.5 1.4 3.6 1.4 2.1 0 3.5-1.4 1.5-1.5 1.5-3.6 0-2.1-1.5-3.6-1.4-1.4-3.5-1.4-2.2 0-3.6 1.4-1.5 1.5-1.5 3.6z" />


                <path id="c" class="s0"
                    d="m90.7 362.8v2.6q-0.9 0.6-2.1 0.8-1.2 0.3-2.5 0.3-3.3 0-5.3-2-1.9-1.9-1.9-5.1 0-3.2 2-5.2 2.1-2.1 5.2-2.1 1.2 0 2.3 0.3 1.1 0.2 2.1 0.6v2.5q-0.9-0.6-1.9-0.9-1-0.3-2-0.3-2.3 0-3.8 1.4-1.4 1.4-1.4 3.8 0 2 1.5 3.4 1.4 1.4 3.5 1.4 1.1 0 2.2-0.4 1-0.3 2.1-1.1z" />

                <path id="i" class="s0"
                    d="m95.1 352.6h2.4v13.3h-2.4zm-0.5-6.4q0-0.7 0.5-1.2 0.5-0.5 1.2-0.5 0.7 0 1.3 0.5 0.5 0.5 0.5 1.2 0 0.7-0.5 1.2-0.5 0.5-1.3 0.5-0.7 0-1.2-0.5-0.5-0.5-0.5-1.2z" />

                <path id="a" class="s0"
                    d="m116.5 352.6v13.3h-2.3v-2.4q-0.8 1.5-2.1 2.2-1.3 0.8-3 0.8-3 0-4.8-2-1.8-2-1.8-5.2 0-3.3 1.7-5.2 1.8-2 4.8-2 1.8 0 3.1 0.8 1.3 0.7 2.1 2.2v-2.5zm-2.4 6.8q0-2.3-1.3-3.6-1.2-1.4-3.3-1.4-2.2 0-3.4 1.2-1.2 1.3-1.2 3.6 0 2.4 1.2 3.7 1.2 1.3 3.5 1.3 2.1 0 3.3-1.3 1.2-1.2 1.2-3.5z" />


                <path id="c" class="s0"
                    d="m133 362.8v2.6q-1 0.6-2.2 0.8-1.1 0.3-2.5 0.3-3.2 0-5.2-2-2-1.9-2-5.1 0-3.2 2-5.2 2.1-2.1 5.3-2.1 1.1 0 2.3 0.3 1.1 0.2 2 0.6v2.5q-0.9-0.6-1.9-0.9-0.9-0.3-1.9-0.3-2.4 0-3.8 1.4-1.4 1.4-1.4 3.8 0 2 1.4 3.4 1.4 1.4 3.6 1.4 1.1 0 2.1-0.4 1-0.3 2.2-1.1z" />

                <path id="i" class="s0"
                    d="m137.4 352.6h2.4v13.3h-2.4zm-0.6-6.4q0-0.7 0.5-1.2 0.5-0.5 1.3-0.5 0.7 0 1.2 0.5 0.5 0.5 0.5 1.2 0 0.7-0.5 1.2-0.5 0.5-1.2 0.5-0.8 0-1.3-0.5-0.5-0.5-0.5-1.2z" />

                <path id="o" class="s0"
                    d="m150.1 350.5l3.1-5.1h3l-4.3 5.1zm-5.4 8.8q0-1.5 0.5-2.8 0.6-1.3 1.7-2.3 1.1-1 2.4-1.5 1.4-0.6 3-0.6 1.5 0 2.9 0.6 1.3 0.5 2.4 1.5 1.1 1 1.7 2.3 0.6 1.3 0.6 2.8 0 1.5-0.6 2.7-0.6 1.3-1.7 2.3-1.1 1.1-2.4 1.6-1.4 0.6-2.9 0.6-1.6 0-3-0.6-1.3-0.5-2.4-1.5-1.1-1.1-1.7-2.3-0.5-1.3-0.5-2.8zm2.5 0q0 2.1 1.5 3.6 1.5 1.4 3.6 1.4 2.1 0 3.5-1.4 1.5-1.5 1.5-3.6 0-2.1-1.5-3.6-1.4-1.4-3.5-1.4-2.2 0-3.6 1.4-1.5 1.5-1.5 3.6z" />


                <path id="n" class="s0"
                    d="m164.5 365.9v-13.3h2.3v2.1q0.9-1.3 2.2-1.9 1.3-0.7 2.9-0.7 2.5 0 3.9 1.3 1.4 1.2 1.4 3.5v9h-2.5v-7.8q0-2-0.8-3-0.9-1-2.8-1-1.1 0-2 0.4-0.8 0.3-1.4 1-0.5 0.5-0.6 1.2-0.2 0.7-0.2 2.3v6.9z" />

            </g>

            <g text="Nacional">
                <path id="N" class="s0" d="m193.3 365.9v-22.1l16.3 17v-16.2h2.6v22.2l-16.4-16.9v16z" />


                <path id="a" class="s0"
                    d="m231.2 352.6v13.3h-2.3v-2.4q-0.8 1.5-2.1 2.2-1.4 0.8-3 0.8-3 0-4.8-2-1.9-2-1.9-5.2 0-3.3 1.8-5.2 1.8-2 4.8-2 1.8 0 3.1 0.8 1.2 0.7 2 2.2v-2.5zm-2.3 6.8q0-2.3-1.3-3.6-1.3-1.4-3.3-1.4-2.2 0-3.4 1.2-1.2 1.3-1.2 3.6 0 2.4 1.2 3.7 1.2 1.3 3.4 1.3 2.2 0 3.4-1.3 1.2-1.2 1.2-3.5z" />


                <path id="c" class="s0"
                    d="m247.7 362.8v2.6q-1 0.6-2.2 0.8-1.2 0.3-2.5 0.3-3.3 0-5.2-2-2-1.9-2-5.1 0-3.2 2-5.2 2.1-2.1 5.3-2.1 1.1 0 2.2 0.3 1.1 0.2 2.1 0.6v2.5q-0.9-0.6-1.9-0.9-1-0.3-2-0.3-2.3 0-3.7 1.4-1.5 1.4-1.5 3.8 0 2 1.5 3.4 1.4 1.4 3.6 1.4 1 0 2.1-0.4 1-0.3 2.2-1.1z" />

                <path id="i" class="s0"
                    d="m252.1 352.6h2.4v13.3h-2.4zm-0.6-6.4q0-0.7 0.5-1.2 0.5-0.5 1.2-0.5 0.8 0 1.3 0.5 0.5 0.5 0.5 1.2 0 0.7-0.5 1.2-0.5 0.5-1.3 0.5-0.7 0-1.2-0.5-0.5-0.5-0.5-1.2z" />

                <path id="o" class="s0"
                    d="m259.3 359.3q0-1.5 0.6-2.8 0.5-1.3 1.6-2.3 1.1-1 2.5-1.5 1.4-0.6 2.9-0.6 1.5 0 2.9 0.6 1.4 0.5 2.5 1.5 1.1 1 1.6 2.3 0.6 1.3 0.6 2.8 0 1.5-0.6 2.7-0.5 1.3-1.6 2.3-1.1 1.1-2.5 1.6-1.4 0.6-2.9 0.6-1.5 0-2.9-0.6-1.4-0.5-2.5-1.5-1.1-1.1-1.6-2.3-0.6-1.3-0.6-2.8zm2.6 0q0 2.1 1.4 3.6 1.5 1.4 3.6 1.4 2.1 0 3.6-1.4 1.4-1.5 1.4-3.6 0-2.1-1.4-3.6-1.5-1.4-3.6-1.4-2.1 0-3.6 1.4-1.4 1.5-1.4 3.6z" />


                <path id="n" class="s0"
                    d="m279.2 365.9v-13.3h2.3v2.1q0.9-1.3 2.2-1.9 1.3-0.7 2.9-0.7 2.5 0 3.9 1.3 1.4 1.2 1.4 3.5v9h-2.5v-7.8q0-2-0.9-3-0.9-1-2.7-1-1.1 0-2 0.4-0.8 0.3-1.4 1-0.5 0.5-0.7 1.2-0.2 0.7-0.2 2.3v6.9z" />


                <path id="a" class="s0"
                    d="m310.6 352.6v13.3h-2.4v-2.4q-0.8 1.5-2.1 2.2-1.3 0.8-2.9 0.8-3 0-4.9-2-1.8-2-1.8-5.2 0-3.3 1.8-5.2 1.8-2 4.7-2 1.8 0 3.1 0.8 1.3 0.7 2.1 2.2v-2.5zm-2.3 6.8q0-2.3-1.3-3.6-1.3-1.4-3.4-1.4-2.2 0-3.4 1.2-1.2 1.3-1.2 3.6 0 2.4 1.2 3.7 1.3 1.3 3.5 1.3 2.1 0 3.3-1.3 1.3-1.2 1.3-3.5z" />

                <path id="l" class="s0" d="m316.4 343.4h2.4v22.5h-2.4z" />
            </g>

            <g text="de">
                <path id="d" class="s0"
                    d="m348 343.4v22.5h-2.3v-2.4q-0.9 1.5-2.2 2.2-1.3 0.8-2.9 0.8-3 0-4.9-2-1.8-2-1.8-5.2 0-3.3 1.8-5.2 1.8-2 4.8-2 1.7 0 3 0.8 1.3 0.7 2.1 2.2v-11.7zm-2.3 15.9q0-2.2-1.3-3.6-1.3-1.3-3.5-1.3-2.1 0-3.3 1.2-1.2 1.3-1.2 3.4 0 2.5 1.2 3.9 1.3 1.4 3.4 1.4 2.2 0 3.4-1.3 1.3-1.3 1.3-3.7z" />


                <path id="e" class="s0"
                    d="m366.3 359.6h-11.1v0.2q0 2.2 1.3 3.5 1.3 1.3 3.3 1.3 1.4 0 2.6-0.7 1.1-0.8 2-2.2l1.8 1.2q-1.1 1.8-2.7 2.7-1.7 0.9-3.8 0.9-3.2 0-5.2-2-1.9-2-1.9-5.3 0-3.1 1.9-5.1 2-2 5-2 3.1 0 5 1.9 1.8 1.9 1.8 5.2zm-2.6-1.9q-0.1-1.8-1.2-2.7-1.1-1-3.1-1-1.7 0-2.9 1-1.1 1-1.3 2.7z" />

            </g>

            <g text="Estudiantes">
                <path id="E" class="s0" d="m381.2 365.9v-21.3h11.8v2.3h-9.1v6.1h9.1v2.4h-9.1v8.2h9.1v2.3z" />


                <path id="s" class="s0"
                    d="m396.7 363.7l2.1-1.3q0.6 1 1.4 1.6 0.9 0.5 2.1 0.5 1.2 0 1.9-0.6 0.8-0.5 0.8-1.4 0-0.7-0.5-1.2-0.5-0.4-1.7-0.8l-0.4-0.2q-5.1-1.6-5.1-4.2 0-1.7 1.3-2.9 1.4-1.1 3.6-1.1 1.8 0 3.1 0.7 1.3 0.7 1.9 2l-2 1.1q-0.4-0.9-1.2-1.4-0.8-0.5-1.9-0.5-1.1 0-1.8 0.6-0.6 0.5-0.6 1.4 0 1.2 2.8 2 0.5 0.2 0.8 0.3 2.3 0.7 3.1 1.6 0.9 0.9 0.9 2.4 0 1.8-1.4 3-1.4 1.2-3.7 1.2-1.9 0-3.3-0.7-1.3-0.7-2.2-2.1z" />


                <path id="t" class="s0" d="m412.3 354.5h-2.6v-1.9h2.6v-5.4h2.4v5.4h2.6v1.9h-2.6v11.4h-2.4z" />


                <path id="u" class="s0"
                    d="m423.2 352.6v6.6q0 2.8 0.9 4 0.9 1.1 3 1.1 2.1 0 3-1.1 0.9-1.1 0.9-4v-6.6h2.4v7.8q0 3-1.6 4.5-1.6 1.6-4.8 1.6-3.1 0-4.7-1.6-1.6-1.5-1.6-4.5v-7.8z" />


                <path id="d" class="s0"
                    d="m452 343.4v22.5h-2.3v-2.4q-0.9 1.5-2.2 2.2-1.3 0.8-2.9 0.8-3 0-4.9-2-1.8-2-1.8-5.2 0-3.3 1.8-5.2 1.8-2 4.8-2 1.7 0 3 0.8 1.3 0.7 2.1 2.2v-11.7zm-2.3 15.9q0-2.2-1.3-3.6-1.3-1.3-3.4-1.3-2.2 0-3.4 1.2-1.2 1.3-1.2 3.4 0 2.5 1.3 3.9 1.2 1.4 3.3 1.4 2.2 0 3.4-1.3 1.3-1.3 1.3-3.7z" />

                <path id="i" class="s0"
                    d="m457.9 352.6h2.4v13.3h-2.4zm-0.6-6.4q0-0.7 0.6-1.2 0.5-0.5 1.2-0.5 0.7 0 1.2 0.5 0.5 0.5 0.5 1.2 0 0.7-0.5 1.2-0.5 0.5-1.2 0.5-0.7 0-1.2-0.5-0.6-0.5-0.6-1.2z" />

                <path id="a" class="s0"
                    d="m479.3 352.6v13.3h-2.3v-2.4q-0.8 1.5-2.1 2.2-1.4 0.8-3 0.8-3 0-4.8-2-1.9-2-1.9-5.2 0-3.3 1.8-5.2 1.8-2 4.8-2 1.8 0 3.1 0.8 1.2 0.7 2 2.2v-2.5zm-2.3 6.8q0-2.3-1.3-3.6-1.3-1.4-3.3-1.4-2.2 0-3.4 1.2-1.2 1.3-1.2 3.6 0 2.4 1.2 3.7 1.2 1.3 3.4 1.3 2.2 0 3.4-1.3 1.2-1.2 1.2-3.5z" />


                <path id="n" class="s0"
                    d="m485 365.9v-13.3h2.4v2.1q0.9-1.3 2.1-1.9 1.3-0.7 3-0.7 2.4 0 3.8 1.3 1.4 1.2 1.4 3.5v9h-2.4v-7.8q0-2-0.9-3-0.9-1-2.8-1-1 0-1.9 0.4-0.9 0.3-1.5 1-0.4 0.5-0.6 1.2-0.2 0.7-0.2 2.3v6.9z" />


                <path id="t" class="s0" d="m503.8 354.5h-2.6v-1.9h2.6v-5.4h2.4v5.4h2.6v1.9h-2.6v11.4h-2.4z" />


                <path id="e" class="s0"
                    d="m524.9 359.6h-11.1v0.2q0 2.2 1.3 3.5 1.3 1.3 3.4 1.3 1.4 0 2.5-0.7 1.1-0.8 2-2.2l1.8 1.2q-1 1.8-2.7 2.7-1.6 0.9-3.7 0.9-3.2 0-5.2-2-2-2-2-5.3 0-3.1 2-5.1 1.9-2 5-2 3.1 0 4.9 1.9 1.8 1.9 1.8 5.2zm-2.5-1.9q-0.2-1.8-1.3-2.7-1.1-1-3-1-1.8 0-2.9 1-1.2 1-1.4 2.7z" />


                <path id="s" class="s0"
                    d="m528 363.7l2-1.3q0.6 1 1.5 1.6 0.9 0.5 2.1 0.5 1.2 0 1.9-0.6 0.7-0.5 0.7-1.4 0-0.7-0.5-1.2-0.5-0.4-1.7-0.8l-0.4-0.2q-5.1-1.6-5.1-4.2 0-1.7 1.4-2.9 1.4-1.1 3.6-1.1 1.8 0 3.1 0.7 1.3 0.7 1.8 2l-1.9 1.1q-0.4-0.9-1.3-1.4-0.8-0.5-1.9-0.5-1 0-1.7 0.6-0.7 0.5-0.7 1.4 0 1.2 2.8 2 0.5 0.2 0.8 0.3 2.3 0.7 3.2 1.6 0.9 0.9 0.9 2.4 0 1.8-1.4 3-1.4 1.2-3.7 1.2-2 0-3.3-0.7-1.4-0.7-2.2-2.1z" />

            </g>


            <g text="de">
                <path id="d" class="s0"
                    d="m566.3 343.4v22.5h-2.3v-2.4q-0.8 1.5-2.1 2.2-1.4 0.8-3 0.8-3 0-4.8-2-1.9-2-1.9-5.2 0-3.3 1.8-5.2 1.8-2 4.8-2 1.8 0 3.1 0.8 1.2 0.7 2 2.2v-11.7zm-2.3 15.9q0-2.2-1.3-3.6-1.3-1.3-3.4-1.3-2.1 0-3.3 1.2-1.2 1.3-1.2 3.4 0 2.5 1.2 3.9 1.2 1.4 3.3 1.4 2.2 0 3.5-1.3 1.2-1.3 1.2-3.7z" />


                <path id="e" class="s0"
                    d="m584.6 359.6h-11.1v0.2q0 2.2 1.3 3.5 1.3 1.3 3.4 1.3 1.4 0 2.5-0.7 1.1-0.8 2-2.2l1.8 1.2q-1 1.8-2.7 2.7-1.6 0.9-3.8 0.9-3.2 0-5.1-2-2-2-2-5.3 0-3.1 2-5.1 1.9-2 5-2 3.1 0 4.9 1.9 1.8 1.9 1.8 5.2zm-2.6-1.9q-0.1-1.8-1.2-2.7-1.1-1-3-1-1.8 0-2.9 1-1.2 1-1.4 2.7z" />

            </g>


            <g text="Ingeniería">
                <path id="I" class="s0" d="m599.6 344.6h2.6v21.3h-2.6z" />

                <path id="n" class="s0"
                    d="m608.3 365.9v-13.3h2.4v2.1q0.9-1.3 2.2-1.9 1.2-0.7 2.9-0.7 2.5 0 3.9 1.3 1.3 1.2 1.3 3.5v9h-2.4v-7.8q0-2-0.9-3-0.9-1-2.8-1-1 0-1.9 0.4-0.9 0.3-1.5 1-0.4 0.5-0.6 1.2-0.2 0.7-0.2 2.3v6.9z" />


                <path id="g" class="s0"
                    d="m639.7 352.6v13.1q0 2.2-0.3 3.1-0.3 0.9-1 1.6-1 1-2.4 1.5-1.4 0.5-3.2 0.5-3.2 0-5-1.4-1.8-1.3-1.8-3.9h2.7v0.2q0 1.5 1 2.3 1.1 0.8 3.1 0.8 1.4 0 2.5-0.4 1-0.5 1.5-1.3 0.3-0.5 0.5-1.2 0.1-0.6 0.1-1.9v-1-1.2q-0.8 1.4-2.1 2.2-1.3 0.7-3 0.7-3 0-4.8-1.9-1.9-2-1.9-5.2 0-3.2 1.8-5.2 1.8-1.9 4.8-1.9 1.8 0 3.1 0.8 1.3 0.7 2 2.2v-2.5zm-2.3 6.7q0-2.2-1.3-3.6-1.2-1.4-3.3-1.4-2.2 0-3.4 1.3-1.2 1.3-1.2 3.5 0 2.4 1.2 3.8 1.2 1.3 3.5 1.3 2.1 0 3.3-1.3 1.2-1.3 1.2-3.6z" />


                <path id="e" class="s0"
                    d="m658 359.6h-11.1v0.2q0 2.2 1.3 3.5 1.3 1.3 3.3 1.3 1.4 0 2.6-0.7 1.1-0.8 2-2.2l1.8 1.2q-1.1 1.8-2.7 2.7-1.6 0.9-3.8 0.9-3.2 0-5.1-2-2-2-2-5.3 0-3.1 1.9-5.1 2-2 5.1-2 3.1 0 4.9 1.9 1.8 1.9 1.8 5.2zm-2.6-1.9q-0.1-1.8-1.2-2.7-1.1-1-3-1-1.8 0-2.9 1-1.2 1-1.4 2.7z" />


                <path id="n" class="s0"
                    d="m662.5 365.9v-13.3h2.4v2.1q0.9-1.3 2.1-1.9 1.3-0.7 3-0.7 2.4 0 3.8 1.3 1.4 1.2 1.4 3.5v9h-2.4v-7.8q0-2-0.9-3-0.9-1-2.8-1-1 0-1.9 0.4-0.9 0.3-1.5 1-0.4 0.5-0.6 1.2-0.2 0.7-0.2 2.3v6.9z" />

                <path id="i" class="s0"
                    d="m681 352.6h2.4v13.3h-2.4zm-0.5-6.4q0-0.7 0.5-1.2 0.5-0.5 1.2-0.5 0.7 0 1.2 0.5 0.6 0.5 0.6 1.2 0 0.7-0.6 1.2-0.5 0.5-1.2 0.5-0.7 0-1.2-0.5-0.5-0.5-0.5-1.2z" />

                <path id="e" class="s0"
                    d="m701.9 359.6h-11.1v0.2q0 2.2 1.3 3.5 1.3 1.3 3.3 1.3 1.5 0 2.6-0.7 1.1-0.8 2-2.2l1.8 1.2q-1.1 1.8-2.7 2.7-1.6 0.9-3.8 0.9-3.2 0-5.1-2-2-2-2-5.3 0-3.1 1.9-5.1 2-2 5.1-2 3.1 0 4.9 1.9 1.8 1.9 1.8 5.2zm-2.6-1.9q-0.1-1.8-1.2-2.7-1.1-1-3-1-1.8 0-2.9 1-1.2 1-1.4 2.7z" />


                <path id="r" class="s0"
                    d="m706.5 365.9v-13.3h2.1v2.8q1-1.8 2-2.5 1.1-0.7 2.7-0.7 0.4 0 0.8 0 0.4 0.1 0.8 0.2l-0.8 2.1q-0.4-0.2-0.8-0.2-0.3-0.1-0.7-0.1-1.9 0-2.8 1.3-1 1.3-1 3.9v6.5z" />

                <path id="í" class="s0" d="m718.5 352.6h2.4v13.3h-2.4zm-1-2.1l3.1-5h3.1l-4.3 5z" />

                <path id="a" class="s0"
                    d="m739.9 352.6v13.3h-2.3v-2.4q-0.9 1.5-2.2 2.2-1.3 0.8-2.9 0.8-3 0-4.9-2-1.8-2-1.8-5.2 0-3.3 1.8-5.2 1.8-2 4.8-2 1.7 0 3 0.8 1.3 0.7 2.1 2.2v-2.5zm-2.3 6.8q0-2.3-1.3-3.6-1.3-1.4-3.4-1.4-2.1 0-3.3 1.2-1.2 1.3-1.2 3.6 0 2.4 1.2 3.7 1.2 1.3 3.4 1.3 2.2 0 3.4-1.3 1.2-1.2 1.2-3.5z" />


            </g>

            <g text="Civil">
                <path id="C" class="s0"
                    d="m774.2 349.7q-1.6-1.6-3.5-2.4-1.8-0.8-4-0.8-1.8 0-3.4 0.6-1.7 0.7-3 2-1.2 1.2-1.9 2.8-0.6 1.6-0.6 3.4 0 1.5 0.4 2.8 0.3 1.2 1.1 2.3 1.3 1.8 3.3 2.8 2 1 4.2 1 2.2 0 4-0.9 1.8-0.8 3.4-2.5v3.4q-1.7 1.1-3.6 1.7-1.9 0.6-4 0.6-1.8 0-3.4-0.5-1.7-0.5-3.2-1.5-2.4-1.6-3.7-3.9-1.3-2.4-1.3-5.2 0-2.5 0.9-4.5 0.8-2 2.6-3.7 1.7-1.5 3.8-2.3 2.1-0.8 4.5-0.8 2 0 3.8 0.6 1.8 0.5 3.6 1.7z" />

                <path id="i" class="s0"
                    d="m779.5 352.6h2.4v13.3h-2.4zm-0.6-6.4q0-0.7 0.6-1.2 0.5-0.5 1.2-0.5 0.7 0 1.2 0.5 0.5 0.5 0.5 1.2 0 0.7-0.5 1.2-0.5 0.5-1.2 0.5-0.7 0-1.2-0.5-0.6-0.5-0.6-1.2z" />

                <path id="v" class="s0" d="m792.5 366.8l-6.9-14.2h2.7l4.2 9.3 4.2-9.3h2.7z" />

                <path id="i" class="s0"
                    d="m803 352.6h2.4v13.3h-2.4zm-0.5-6.4q0-0.7 0.5-1.2 0.5-0.5 1.2-0.5 0.7 0 1.2 0.5 0.6 0.5 0.6 1.2 0 0.7-0.6 1.2-0.5 0.5-1.2 0.5-0.7 0-1.2-0.5-0.5-0.5-0.5-1.2z" />
                <path id="l" class="s0" d="m811.5 343.4h2.5v22.5h-2.5z" />

            </g>


        </g>
    </g>
</svg>