<?xml version="1.0" encoding="UTF-8"?>
<!-- Generator: visioncortex VTracer 0.6.4 -->
<svg version="1.1" xmlns="http://www.w3.org/2000/svg" width="996" height="560">
<path d="M0 0 C1.007961 -0.001435 1.007961 -0.001435 2.036285 -0.002899 C3.456808 -0.003579 4.877335 -0.001738 6.297852 0.002441 C8.46166 0.007776 10.62526 0.002498 12.789062 -0.003906 C14.171875 -0.003245 15.554688 -0.001963 16.9375 0 C18.817678 0.001692 18.817678 0.001692 20.73584 0.003418 C23.67182 0.116291 26.250251 0.47272 29.101562 1.132812 C30.997082 1.385183 32.892948 1.634954 34.789062 1.882812 C40.541027 2.75153 46.067452 4.079172 51.664062 5.632812 C52.824581 5.953306 52.824581 5.953306 54.008545 6.280273 C61.28614 8.356159 61.28614 8.356159 64.101562 10.132812 C65.812293 13.554274 65.348197 17.75079 65.355469 21.546875 C65.391816 23.816092 65.391816 23.816092 66.101562 27.132812 C68.530816 29.496299 68.530816 29.496299 71.101562 31.132812 C71.101562 31.792812 71.101562 32.452812 71.101562 33.132812 C71.702266 33.246008 72.302969 33.359204 72.921875 33.47583 C76.440616 34.536418 78.60509 37.246598 81.101562 39.820312 C81.622344 40.337871 82.143125 40.85543 82.679688 41.388672 C85.970577 44.725268 88.58169 48.159991 91.101562 52.132812 C92.224391 53.676061 93.349324 55.217782 94.476562 56.757812 C99.810207 64.362558 103.646574 72.182736 106.101562 81.132812 C106.515352 82.37418 106.929141 83.615547 107.355469 84.894531 C107.677412 85.862295 107.677412 85.862295 108.005859 86.849609 C108.439196 88.147048 108.88169 89.44147 109.333984 90.732422 C112.969132 101.835547 112.030633 113.322457 111.418777 124.797716 C107.152645 168.430869 107.152645 168.430869 122.417953 207.157562 C129.111808 213.952253 136.777937 219.516459 145.101562 224.132812 C144.771562 224.792812 144.441563 225.452812 144.101562 226.132812 C133.688133 226.155936 123.27471 226.173728 112.86126 226.184625 C108.026394 226.189853 103.191546 226.196951 98.356689 226.208252 C93.694791 226.219081 89.03291 226.225089 84.371 226.22769 C82.58832 226.229544 80.80564 226.233165 79.022966 226.238543 C76.534903 226.245753 74.04691 226.246803 71.558838 226.246338 C70.814374 226.249933 70.06991 226.253528 69.302887 226.257233 C64.215615 226.246865 64.215615 226.246865 63.101562 225.132812 C63.010267 223.679447 62.988548 222.221644 62.994766 220.765427 C62.99704 219.350557 62.99704 219.350557 62.999359 217.907104 C63.006096 216.863568 63.012834 215.820032 63.019775 214.744873 C63.022842 213.652095 63.025909 212.559318 63.029068 211.433426 C63.036245 209.049453 63.045646 206.665487 63.056963 204.28153 C63.0743 200.501795 63.084637 196.722102 63.09288 192.942337 C63.117369 182.191252 63.15264 171.440227 63.19751 160.689209 C63.224842 154.119867 63.241377 147.550539 63.252378 140.98115 C63.258564 138.481868 63.268538 135.982593 63.282457 133.483343 C63.301831 129.970217 63.308592 126.457264 63.312744 122.944092 C63.321506 121.922822 63.330267 120.901552 63.339294 119.849335 C63.326035 109.94389 62.328165 100.263699 57.851562 91.320312 C57.542188 90.682871 57.232812 90.04543 56.914062 89.388672 C54.531054 84.637304 51.910199 80.805772 48.101562 77.132812 C47.233379 76.229824 47.233379 76.229824 46.347656 75.308594 C41.134031 69.937321 36.266021 65.946289 29.289062 63.007812 C28.127617 62.510234 26.966172 62.012656 25.769531 61.5 C18.073013 58.631223 11.450014 57.771981 3.289062 57.820312 C1.825936 57.827684 1.825936 57.827684 0.333252 57.835205 C-14.825313 58.082418 -25.448364 63.457289 -36.898438 73.132812 C-37.493984 73.620078 -38.089531 74.107344 -38.703125 74.609375 C-42.817719 78.306821 -45.740414 82.658991 -48.648438 87.320312 C-49.025488 87.90748 -49.402539 88.494648 -49.791016 89.099609 C-55.337756 98.377251 -56.345039 108.711934 -56.314941 119.311279 C-56.323527 120.462347 -56.332112 121.613414 -56.340958 122.799362 C-56.365821 126.560316 -56.370377 130.321003 -56.375 134.082031 C-56.389322 136.708082 -56.405081 139.334125 -56.422211 141.960159 C-56.460523 148.138637 -56.48488 154.317079 -56.503335 160.495645 C-56.538921 172.246429 -56.602422 183.997074 -56.668194 195.747721 C-56.687332 199.610597 -56.699023 203.473442 -56.709625 207.336349 C-56.719829 209.683462 -56.730186 212.030574 -56.740723 214.377686 C-56.742286 215.999095 -56.742286 215.999095 -56.743881 217.653259 C-56.749335 218.630162 -56.754788 219.607065 -56.760406 220.613571 C-56.762963 221.467236 -56.765519 222.320901 -56.768152 223.200435 C-56.898438 225.132812 -56.898438 225.132812 -57.898438 226.132812 C-59.433267 226.226007 -60.972358 226.250271 -62.51001 226.246338 C-63.490951 226.246262 -64.471892 226.246187 -65.482559 226.246109 C-66.549213 226.240948 -67.615867 226.235786 -68.714844 226.230469 C-70.344131 226.228346 -70.344131 226.228346 -72.006332 226.226181 C-75.491228 226.220563 -78.976061 226.208007 -82.460938 226.195312 C-84.817056 226.1903 -87.173176 226.185737 -89.529297 226.181641 C-95.319032 226.170588 -101.10873 226.153832 -106.898438 226.132812 C-107.076392 211.102557 -107.241995 196.072202 -107.393213 181.041654 C-107.463722 174.061465 -107.538151 167.08136 -107.62207 160.101318 C-107.703131 153.358128 -107.772921 146.614894 -107.83601 139.871511 C-107.861821 137.306043 -107.891331 134.740608 -107.924702 132.175226 C-107.970996 128.566466 -108.003819 124.957805 -108.033691 121.348877 C-108.058503 119.77793 -108.058503 119.77793 -108.083817 118.175247 C-108.139955 108.242176 -106.850558 98.621772 -103.898438 89.132812 C-103.898438 88.472813 -103.898438 87.812813 -103.898438 87.132812 C-103.238438 87.132812 -102.578438 87.132812 -101.898438 87.132812 C-102.228437 86.142812 -102.558437 85.152812 -102.898438 84.132812 C-101.844339 79.049495 -99.690406 74.427113 -96.996094 70.011719 C-95.688763 67.773903 -94.584527 65.468048 -93.460938 63.132812 C-91.296835 58.764531 -88.95633 54.934517 -85.898438 51.132812 C-85.238438 51.132812 -84.578438 51.132812 -83.898438 51.132812 C-83.630313 50.328438 -83.362188 49.524063 -83.085938 48.695312 C-82.694063 47.849688 -82.302188 47.004063 -81.898438 46.132812 C-80.413438 45.637812 -80.413438 45.637812 -78.898438 45.132812 C-78.754063 44.534687 -78.609688 43.936563 -78.460938 43.320312 C-77.693084 40.334216 -76.248537 39.068189 -73.898438 37.132812 C-72.908437 37.132812 -71.918438 37.132812 -70.898438 37.132812 C-70.649648 36.53082 -70.400859 35.928828 -70.144531 35.308594 C-68.707394 32.799234 -67.371686 31.878096 -64.960938 30.320312 C-60.766051 27.331551 -59.537194 24.958041 -57.898438 20.132812 C-55.898438 17.132812 -55.898438 17.132812 -53.773438 16.445312 C-53.154687 16.342187 -52.535938 16.239062 -51.898438 16.132812 C-51.898438 15.472813 -51.898438 14.812813 -51.898438 14.132812 C-39.942461 8.245776 -28.349306 3.173988 -14.898438 2.132812 C-2.648494 0.002388 -2.648494 0.002388 0 0 Z " fill="#FDBB10" transform="translate(142.8984375,111.8671875)"/>
<path d="M0 0 C0 0.66 0 1.32 0 2 C1.32 1.67 2.64 1.34 4 1 C4 1.66 4 2.32 4 3 C4.806309 2.680957 4.806309 2.680957 5.628906 2.355469 C8.955009 1.856827 10.89081 2.948597 13.9375 4.3125 C15.466973 4.987324 15.466973 4.987324 17.027344 5.675781 C18.00832 6.112773 18.989297 6.549766 20 7 C21.663378 7.67483 23.328914 8.344491 25 9 C25 9.66 25 10.32 25 11 C25.71543 11.094102 26.430859 11.188203 27.167969 11.285156 C30.469595 12.118532 32.546509 13.466475 35.3125 15.4375 C36.195508 16.054961 37.078516 16.672422 37.988281 17.308594 C38.652148 17.866758 39.316016 18.424922 40 19 C40 19.66 40 20.32 40 21 C40.706406 21.219141 41.412812 21.438281 42.140625 21.664062 C45.662641 23.309595 48.07245 25.632496 50.75 28.375 C51.490566 29.098164 51.490566 29.098164 52.246094 29.835938 C54.887129 32.49868 56.235252 34.359133 57 38 C57.99 38.33 58.98 38.66 60 39 C64.274897 44.209674 70 52.143361 70 59 C70.66 59 71.32 59 72 59 C72.649953 60.414781 73.294787 61.831915 73.9375 63.25 C74.297148 64.038906 74.656797 64.827812 75.027344 65.640625 C75.909076 67.779446 76.615184 69.720328 77 72 C76.67 72.66 76.34 73.32 76 74 C76.66 74 77.32 74 78 74 C78.63655 76.351526 79.259009 78.705571 79.875 81.0625 C80.049023 81.699941 80.223047 82.337383 80.402344 82.994141 C82.304392 90.35577 82.969415 97.27061 84 105 C24.6 105.33 -34.8 105.66 -96 106 C-94.699452 117.05466 -93.724432 125.078357 -90 135 C-89.286299 137.323493 -88.639591 139.654834 -88 142 C-87.34 142 -86.68 142 -86 142 C-84.962663 143.643688 -83.970551 145.316014 -83 147 C-71.933433 161.995526 -56.422913 171.647193 -38.125 175.625 C-31.078709 176.505529 -31.078709 176.505529 -24 177 C-23.67 176.67 -23.34 176.34 -23 176 C-21.308583 176.089631 -19.620404 176.245777 -17.9375 176.4375 C-17.018398 176.539336 -16.099297 176.641172 -15.152344 176.746094 C-14.44207 176.829883 -13.731797 176.913672 -13 177 C-13 176.34 -13 175.68 -13 175 C-12.269102 174.858203 -11.538203 174.716406 -10.785156 174.570312 C5.78582 171.177097 20.030692 161.753691 30 148 C31.661014 145.377551 33.252386 142.72945 34.800781 140.039062 C36 138 36 138 37 137 C40.102512 136.911259 43.182681 136.884815 46.285156 136.902344 C47.215975 136.903759 48.146794 136.905174 49.10582 136.906631 C52.091412 136.912248 55.07693 136.924804 58.0625 136.9375 C60.081379 136.942513 62.100259 136.947076 64.119141 136.951172 C69.079456 136.962223 74.039715 136.979499 79 137 C81.107541 143.322624 75.781114 150.524038 72.952881 156.223877 C71.316299 159.489997 69.659579 162.745501 68 166 C67.331652 167.332492 66.663927 168.665301 66 170 C65.34 170 64.68 170 64 170 C63.731875 170.804375 63.46375 171.60875 63.1875 172.4375 C62.795625 173.283125 62.40375 174.12875 62 175 C61.01 175.33 60.02 175.66 59 176 C58.850469 176.611016 58.700938 177.222031 58.546875 177.851562 C57.820179 180.70644 56.527462 181.551318 54.25 183.375 C51.702397 185.426695 49.724344 187.342384 47.660156 189.90625 C44.915266 193.281253 41.750091 195.66331 38.1875 198.125 C37.569475 198.55877 36.95145 198.992539 36.314697 199.439453 C28.022742 205.172592 19.326349 208.702445 9.6875 211.5 C8.96627 211.712695 8.245039 211.925391 7.501953 212.144531 C5.338362 212.777115 3.170799 213.392642 1 214 C0.327512 214.191265 -0.344976 214.382529 -1.037842 214.57959 C-5.766032 215.854725 -10.301941 216.407965 -15.1875 216.625 C-15.922185 216.662222 -16.65687 216.699443 -17.413818 216.737793 C-30.429084 217.350642 -42.759562 217.287068 -55.3125 213.4375 C-56.637012 213.033379 -56.637012 213.033379 -57.988281 212.621094 C-58.984082 212.313652 -58.984082 212.313652 -60 212 C-60 211.34 -60 210.68 -60 210 C-60.99 210.33 -61.98 210.66 -63 211 C-63 210.34 -63 209.68 -63 209 C-63.99 209.33 -64.98 209.66 -66 210 C-68.600478 208.926408 -71.014547 207.797674 -73.5 206.5 C-74.210354 206.135598 -74.920708 205.771196 -75.652588 205.395752 C-92.448765 196.653705 -92.448765 196.653705 -94 192 C-95.663548 191.325589 -97.330669 190.659968 -99 190 C-101.3125 188 -101.3125 188 -103 186 C-103 185.34 -103 184.68 -103 184 C-103.885586 183.615215 -103.885586 183.615215 -104.789062 183.222656 C-116.795226 176.583205 -125.712471 156.937656 -130.277344 144.527344 C-132.273208 137.546417 -132.273208 137.546417 -131 135 C-131.66 135 -132.32 135 -133 135 C-132.505 133.02 -132.505 133.02 -132 131 C-132.66 131 -133.32 131 -134 131 C-133.979375 130.2575 -133.95875 129.515 -133.9375 128.75 C-133.994268 126.252189 -134.329584 124.3837 -135 122 C-136.286867 117.090842 -136.147237 112.224248 -136.125 107.1875 C-136.128867 106.323184 -136.132734 105.458867 -136.136719 104.568359 C-136.12875 99.288781 -135.764533 94.224306 -135 89 C-134.34 89 -133.68 89 -133 89 C-133.495 86.03 -133.495 86.03 -134 83 C-133.34 83 -132.68 83 -132 83 C-132.33 81.68 -132.66 80.36 -133 79 C-132.34 79 -131.68 79 -131 79 C-131.189895 78.417666 -131.37979 77.835332 -131.575439 77.235352 C-133.296505 68.173776 -121.943266 52.190431 -117.25 44.8125 C-109.203797 33.252945 -99.470184 24.077808 -88 16 C-86.975195 15.267168 -86.975195 15.267168 -85.929688 14.519531 C-81.590215 11.617157 -76.88208 9.387723 -72.1875 7.125 C-71.198708 6.640272 -71.198708 6.640272 -70.189941 6.145752 C-65.353834 3.882055 -65.353834 3.882055 -62 5 C-61.67 4.34 -61.34 3.68 -61 3 C-60.01 3.495 -60.01 3.495 -59 4 C-59 3.34 -59 2.68 -59 2 C-54.25 0.875 -54.25 0.875 -52 2 C-52 1.34 -52 0.68 -52 0 C-48.003062 -0.686141 -44.003133 -1.350977 -40 -2 C-39.288437 -2.117305 -38.576875 -2.234609 -37.84375 -2.355469 C-25.212329 -4.202011 -12.412385 -2.614373 0 0 Z M-82 60 C-82.66 60.66 -83.32 61.32 -84 62 C-85.65 65.3 -87.3 68.6 -89 72 C-47.75 72 -6.5 72 36 72 C35.505 70.02 35.505 70.02 35 68 C34.34 68 33.68 68 33 68 C32.62875 66.948125 32.62875 66.948125 32.25 65.875 C29.515656 59.586008 25.454652 52.797016 19 50 C18.01 49.01 18.01 49.01 17 48 C-14.594981 30.045657 -56.614963 32.053692 -82 60 Z " fill="#005371" transform="translate(629,126)"/>
<path d="M0 0 C2.621677 0.031657 4.574203 0.325867 7.063126 1.036987 C8.053126 1.036987 9.043126 1.036987 10.063126 1.036987 C10.063126 1.696987 10.063126 2.356987 10.063126 3.036987 C10.917774 2.75855 10.917774 2.75855 11.789688 2.474487 C20.275015 0.841572 30.837293 8.260261 38.063126 12.036987 C39.394731 12.707099 40.72717 13.375591 42.063126 14.036987 C42.063126 14.696987 42.063126 15.356987 42.063126 16.036987 C42.638047 16.141401 43.212969 16.245815 43.805313 16.353394 C51.922484 18.811015 59.75722 27.752016 65.063126 34.036987 C65.844376 36.337769 65.844376 36.337769 66.063126 38.036987 C66.723126 38.036987 67.383126 38.036987 68.063126 38.036987 C80.345865 55.764972 85.230375 75.112703 85.19252 96.403931 C85.195149 98.232068 85.195149 98.232068 85.19783 100.097137 C85.201461 103.416895 85.200634 106.73659 85.197451 110.056344 C85.194909 113.535208 85.19727 117.01407 85.198837 120.492935 C85.200652 126.325739 85.19827 132.158531 85.193497 137.991333 C85.188038 144.740909 85.189832 151.490454 85.195323 158.240029 C85.199853 164.039736 85.200506 169.839434 85.197884 175.639142 C85.196323 179.101529 85.196124 182.563903 85.199421 186.026289 C85.202832 189.87614 85.198112 193.725957 85.19252 197.575806 C85.194544 198.728484 85.196569 199.881163 85.198654 201.068771 C85.195834 202.110354 85.193015 203.151937 85.190109 204.225082 C85.189544 205.590803 85.189544 205.590803 85.188967 206.984115 C85.063126 209.036987 85.063126 209.036987 84.063126 210.036987 C81.178787 210.125639 78.318504 210.1522 75.434219 210.134644 C74.137873 210.132521 74.137873 210.132521 72.815338 210.130356 C70.043733 210.12474 67.272207 210.112184 64.500626 210.099487 C62.626278 210.094474 60.751929 210.089911 58.877579 210.085815 C54.27273 210.074765 49.667941 210.05749 45.063126 210.036987 C44.886092 201.266343 44.721145 192.495494 44.563126 183.724487 C44.551101 183.061326 44.539077 182.398165 44.526688 181.714909 C44.234881 165.530422 44.01886 149.349373 44.031876 133.161987 C44.032638 132.146916 44.032638 132.146916 44.033417 131.111338 C44.040466 123.938284 44.064455 116.765376 44.100235 109.592407 C44.104465 108.395956 44.108694 107.199504 44.113052 105.966797 C44.121161 103.742167 44.133461 101.517546 44.150894 99.292969 C44.1646 95.137954 44.164204 91.114519 43.496719 87.006958 C43.063126 84.036987 43.063126 84.036987 44.063126 81.036987 C43.403126 81.036987 42.743126 81.036987 42.063126 81.036987 C42.393126 79.716987 42.723126 78.396987 43.063126 77.036987 C42.403126 77.036987 41.743126 77.036987 41.063126 77.036987 C40.820782 76.468511 40.578438 75.900034 40.328751 75.314331 C36.231407 65.778493 36.231407 65.778493 29.813126 57.724487 C28.905626 56.837612 27.998126 55.950737 27.063126 55.036987 C27.063126 54.376987 27.063126 53.716987 27.063126 53.036987 C25.578126 52.541987 25.578126 52.541987 24.063126 52.036987 C24.063126 51.376987 24.063126 50.716987 24.063126 50.036987 C23.356719 49.933862 22.650313 49.830737 21.922501 49.724487 C18.680882 48.945082 16.230843 47.642504 13.313126 46.036987 C8.000629 43.288918 3.995504 42.324038 -1.936874 42.036987 C-2.596874 41.706987 -3.256874 41.376987 -3.936874 41.036987 C-8.699874 40.704685 -12.402633 41.624682 -16.936874 43.036987 C-18.872169 43.586482 -20.80982 44.127724 -22.749374 44.661987 C-23.683945 44.922378 -24.618515 45.182769 -25.581406 45.45105 C-27.936874 46.036987 -27.936874 46.036987 -29.936874 46.036987 C-29.936874 46.696987 -29.936874 47.356987 -29.936874 48.036987 C-31.585912 49.065799 -33.256551 50.060109 -34.936874 51.036987 C-46.450568 60.123864 -53.429018 70.499084 -55.936874 85.036987 C-56.205159 88.103487 -56.247424 91.150295 -56.255722 94.227417 C-56.27079 95.534768 -56.27079 95.534768 -56.286163 96.86853 C-56.31687 99.731969 -56.334031 102.595312 -56.350937 105.458862 C-56.369704 107.484037 -56.389281 109.509204 -56.409622 111.534363 C-56.46087 116.869338 -56.500455 122.20434 -56.537766 127.539429 C-56.577295 132.864206 -56.628943 138.188864 -56.679062 143.51355 C-56.875548 165.021428 -57.004369 186.528161 -56.936874 208.036987 C-61.279811 208.036987 -63.202858 205.382074 -66.186874 202.536987 C-66.773156 201.987444 -67.359438 201.4379 -67.963486 200.871704 C-71.613092 197.412609 -74.976238 193.824798 -78.198593 189.962769 C-80.989555 186.870759 -84.149873 184.21008 -87.311874 181.505737 C-88.178124 180.69105 -89.044374 179.876362 -89.936874 179.036987 C-90.518627 178.571512 -91.10038 178.106037 -91.699761 177.626457 C-96.344316 173.345973 -97.449056 169.903893 -97.740692 163.621094 C-97.768947 160.586149 -97.708075 157.557396 -97.639755 154.523315 C-97.627907 152.847299 -97.619169 151.171257 -97.613297 149.495209 C-97.588647 144.962041 -97.520654 140.43045 -97.444703 135.89789 C-97.372653 131.154882 -97.340701 126.411605 -97.304443 121.668213 C-97.229777 112.693615 -97.119199 103.719837 -96.995625 94.745794 C-96.856652 84.52598 -96.757854 74.305901 -96.662382 64.085603 C-96.465158 43.068797 -96.217638 22.052833 -95.936874 1.036987 C-84.062464 0.906153 -72.188049 0.775732 -60.313628 0.645836 C-54.799614 0.585504 -49.285601 0.525031 -43.771591 0.464233 C-38.448318 0.405544 -33.12504 0.347228 -27.80176 0.289169 C-25.772842 0.266975 -23.743925 0.244648 -21.71501 0.222183 C-18.868965 0.190694 -16.022916 0.159684 -13.176865 0.128784 C-11.924213 0.114758 -11.924213 0.114758 -10.646255 0.100449 C-7.097547 0.062349 -3.548756 0.033341 0 0 Z " fill="#005372" transform="translate(382.93687438964844,127.9630126953125)"/>
<path d="M0 0 C2.071891 2.071891 1.188322 6.48454 1.203125 9.339844 C1.208825 10.177135 1.214525 11.014427 1.220398 11.87709 C1.229862 13.65169 1.236387 15.426307 1.240234 17.200928 C1.249947 19.922673 1.28096 22.643666 1.3125 25.365234 C1.319029 27.085933 1.32428 28.806637 1.328125 30.527344 C1.340472 31.345088 1.352819 32.162832 1.36554 33.005356 C1.356445 35.300537 1.356445 35.300537 1 39 C-2 41 -2 41 -4.339844 40.792969 C-5.19707 40.593164 -6.054297 40.393359 -6.9375 40.1875 C-7.792148 39.99543 -8.646797 39.803359 -9.527344 39.605469 C-11.020658 39.239807 -12.509676 38.854807 -13.988281 38.433594 C-22.791539 36.536193 -32.901363 37.909523 -41.144531 41.257812 C-43 42 -43 42 -45.8125 42.8125 C-58.526857 47.549221 -68.504803 55.581714 -77 66 C-77.473086 66.574922 -77.946172 67.149844 -78.433594 67.742188 C-81.739524 72.047106 -83.798231 76.748866 -85.886719 81.742188 C-87 84 -87 84 -89 85 C-88.67 85.99 -88.34 86.98 -88 88 C-88.309375 88.763125 -88.61875 89.52625 -88.9375 90.3125 C-90.161934 93.409597 -90.068909 95.692346 -90 99 C-90.239766 100.164023 -90.239766 100.164023 -90.484375 101.351562 C-91.602362 107.09395 -91.729475 113.331524 -89.9375 118.9375 C-89.020664 121.932498 -88.859752 123.149381 -90 126 C-89.34 126 -88.68 126 -88 126 C-87.7525 126.825 -87.505 127.65 -87.25 128.5 C-86.026108 131.926899 -84.52988 134.975733 -82.804688 138.167969 C-82 140 -82 140 -82 143 C-81.34 143 -80.68 143 -80 143 C-78.527344 144.863281 -78.527344 144.863281 -76.9375 147.3125 C-76.410273 148.113008 -75.883047 148.913516 -75.339844 149.738281 C-74 152 -74 152 -73 155 C-72.34 155 -71.68 155 -71 155 C-69.320285 156.653515 -67.656032 158.322767 -66 160 C-56.298749 167.793027 -46.37522 172.783543 -34 175 C-34 175.66 -34 176.32 -34 177 C-33.324531 176.916211 -32.649063 176.832422 -31.953125 176.746094 C-30.615078 176.59334 -30.615078 176.59334 -29.25 176.4375 C-28.368281 176.333086 -27.486562 176.228672 -26.578125 176.121094 C-24.087188 176.004095 -22.382343 176.374881 -20 177 C-18.845 176.835 -17.69 176.67 -16.5 176.5 C-13.43595 176.062279 -11.839172 175.977898 -9 177 C-9 176.34 -9 175.68 -9 175 C-7.521688 174.805878 -6.042307 174.619879 -4.5625 174.4375 C-3.738789 174.333086 -2.915078 174.228672 -2.066406 174.121094 C-1.384492 174.081133 -0.702578 174.041172 0 174 C1 175 1 175 1.113525 178.693604 C1.113366 180.338713 1.10767 181.983827 1.097656 183.628906 C1.095534 184.925252 1.095534 184.925252 1.093369 186.247787 C1.087752 189.019393 1.075197 191.790919 1.0625 194.5625 C1.057487 196.436848 1.052924 198.311197 1.048828 200.185547 C1.037778 204.790395 1.020502 209.395184 1 214 C-17.431884 219.368902 -39.367413 218.893658 -57 211 C-58.703757 210.403432 -60.411918 209.819237 -62.125 209.25 C-71.498612 205.871889 -81.777935 201.047513 -89 194 C-89 193.34 -89 192.68 -89 192 C-89.889453 191.864648 -89.889453 191.864648 -90.796875 191.726562 C-93.561612 190.814788 -94.449236 189.639067 -96.25 187.375 C-99.327873 183.657569 -102.626348 180.64082 -106.398438 177.640625 C-108.213842 175.780943 -108.613972 174.536757 -109 172 C-109.66 172 -110.32 172 -111 172 C-112.507812 169.917969 -112.507812 169.917969 -114.125 167.1875 C-114.663828 166.29418 -115.202656 165.400859 -115.757812 164.480469 C-117 162 -117 162 -117 159 C-117.66 158.67 -118.32 158.34 -119 158 C-122.644901 152.532649 -124.419596 146.757928 -126.21875 140.5 C-126.964464 137.97956 -126.964464 137.97956 -128.023438 135.542969 C-135.85338 115.153799 -132.273652 86.592025 -124.28125 66.867188 C-122.939363 63.864306 -121.49507 60.929293 -120 58 C-119.34 58 -118.68 58 -118 58 C-117.9175 57.154375 -117.835 56.30875 -117.75 55.4375 C-116.842661 51.278865 -115.234587 48.604173 -113 45 C-112.34 45 -111.68 45 -111 45 C-110.731875 44.195625 -110.46375 43.39125 -110.1875 42.5625 C-109.795625 41.716875 -109.40375 40.87125 -109 40 C-107.515 39.505 -107.515 39.505 -106 39 C-106 38.34 -106 37.68 -106 37 C-105.34 37 -104.68 37 -104 37 C-103.934258 36.444414 -103.868516 35.888828 -103.800781 35.316406 C-102.667951 32.039487 -100.662648 30.340169 -98.1875 27.9375 C-97.314805 27.080273 -96.442109 26.223047 -95.542969 25.339844 C-89.739566 20 -89.739566 20 -86 20 C-86 19.34 -86 18.68 -86 18 C-83.699219 16.273438 -83.699219 16.273438 -80.6875 14.375 C-79.701367 13.743359 -78.715234 13.111719 -77.699219 12.460938 C-75 11 -75 11 -72 11 C-72 10.34 -72 9.68 -72 9 C-69.959001 8.206614 -67.917169 7.41537 -65.875 6.625 C-64.738047 6.184141 -63.601094 5.743281 -62.429688 5.289062 C-55.869875 2.823529 -55.869875 2.823529 -53 2 C-52.01 2.495 -52.01 2.495 -51 3 C-51 2.34 -51 1.68 -51 1 C-49.68 1.33 -48.36 1.66 -47 2 C-47 1.34 -47 0.68 -47 0 C-43.876962 -0.512778 -40.751337 -1.007768 -37.625 -1.5 C-36.754883 -1.643086 -35.884766 -1.786172 -34.988281 -1.933594 C-23.092046 -3.784119 -11.588032 -3.310866 0 0 Z " fill="#005372" transform="translate(951,126)"/>
<path d="M0 0 C0.81368 -0.000957 1.627361 -0.001913 2.465698 -0.002899 C4.187257 -0.00358 5.908818 -0.001732 7.630371 0.002441 C10.270566 0.007791 12.910591 0.002494 15.550781 -0.003906 C17.221355 -0.003245 18.891928 -0.001964 20.5625 0 C21.355233 -0.002024 22.147966 -0.004048 22.964722 -0.006134 C28.55133 0.017852 28.55133 0.017852 30.78125 1.132812 C30.78125 66.802813 30.78125 132.472813 30.78125 200.132812 C17.25125 200.132812 3.72125 200.132812 -10.21875 200.132812 C-10.21875 134.462812 -10.21875 68.792812 -10.21875 1.132812 C-7.010787 -0.471169 -3.522747 -0.008995 0 0 Z " fill="#005372" transform="translate(756.21875,132.8671875)"/>
<path d="M0 0 C0.922128 0.003595 1.844256 0.007191 2.794327 0.010895 C4.242951 0.010676 4.242951 0.010676 5.72084 0.010452 C8.929522 0.011152 12.138146 0.018946 15.346817 0.026764 C17.564992 0.028628 19.783167 0.030052 22.001343 0.031052 C27.852311 0.034878 33.703256 0.044709 39.554214 0.055756 C45.519584 0.065967 51.484957 0.070549 57.450333 0.075592 C69.164538 0.086331 80.878718 0.103929 92.592911 0.12442 C92.592911 14.31442 92.592911 28.50442 92.592911 43.12442 C59.592911 43.12442 26.592911 43.12442 -7.407089 43.12442 C-7.407089 0.012203 -7.407089 0.012203 0 0 Z " fill="#FDBD10" transform="translate(103.40708923339844,294.8755798339844)"/>
<path d="M0 0 C1.9375 0.1875 1.9375 0.1875 4 1 C4.291328 1.603281 4.582656 2.206563 4.882812 2.828125 C6.205032 5.398593 7.723411 6.719488 9.9375 8.5625 C15.254909 13.025148 15.254909 13.025148 17 15 C17 15.66 17 16.32 17 17 C17.86625 17.309375 17.86625 17.309375 18.75 17.625 C21.271701 19.16604 22.216421 20.825404 23.746094 23.296875 C25.754184 26.024375 28.330482 28.030123 30.90625 30.207031 C38.860884 37.018929 38.860884 37.018929 41.4375 41.5 C42.987185 43.979495 44.345876 45.261623 46.5625 47.125 C50.99031 50.850243 54.770738 55.027423 58.605469 59.351562 C61.545845 62.603724 64.643404 65.670297 67.773438 68.738281 C71.575052 72.47499 75.139187 76.358967 78.617188 80.398438 C79.385705 81.288528 80.168471 82.168471 81 83 C81.010307 81.987446 81.020615 80.974893 81.031235 79.931656 C81.128797 70.41056 81.231515 60.889532 81.339339 51.368546 C81.394612 46.473179 81.448038 41.577805 81.497314 36.682373 C81.544895 31.962067 81.597235 27.241836 81.652941 22.52162 C81.673393 20.716632 81.692101 18.911624 81.709074 17.1066 C81.733054 14.587348 81.763117 12.068239 81.794678 9.549072 C81.800433 8.795258 81.806189 8.041443 81.812119 7.264786 C81.885948 2.114052 81.885948 2.114052 83 1 C86.5 0.875 86.5 0.875 90 1 C91.953653 2.953653 91.120221 5.933998 91.12442 8.534012 C91.119027 9.945256 91.119027 9.945256 91.113525 11.38501 C91.113671 12.370266 91.113817 13.355523 91.113968 14.370636 C91.113268 17.644248 91.105474 20.917804 91.097656 24.191406 C91.095792 26.454422 91.094368 28.717438 91.093369 30.980453 C91.089542 36.949789 91.079711 42.919101 91.068665 48.888428 C91.058453 54.974443 91.053871 61.060463 91.048828 67.146484 C91.038089 79.097667 91.021011 91.048831 91 103 C87 103 87 103 85.296875 101.792969 C84.786406 101.263164 84.275938 100.733359 83.75 100.1875 C83.229219 99.66543 82.708437 99.143359 82.171875 98.605469 C81 97 81 97 81 94 C80.195625 93.7525 79.39125 93.505 78.5625 93.25 C77.716875 92.8375 76.87125 92.425 76 92 C75.627896 90.676963 75.293698 89.342621 75 88 C73.676614 87.3138 72.340501 86.652135 71 86 C68.819861 84.161008 66.732772 82.269931 65 80 C65 79.01 65 78.02 65 77 C64.459883 76.786016 63.919766 76.572031 63.363281 76.351562 C60.149671 74.513696 57.750532 72.003523 55.1875 69.375 C54.659951 68.839556 54.132402 68.304111 53.588867 67.752441 C42 55.911333 42 55.911333 42 53 C41.103296 52.596846 41.103296 52.596846 40.188477 52.185547 C37.990022 50.994595 36.67053 49.856133 34.984375 48.03125 C34.455859 47.460195 33.927344 46.889141 33.382812 46.300781 C32.843984 45.706523 32.305156 45.112266 31.75 44.5 C31.195703 43.905742 30.641406 43.311484 30.070312 42.699219 C26 38.257966 26 38.257966 26 36 C24.68 35.34 23.36 34.68 22 34 C18.04 29.71 14.08 25.42 10 21 C9.67 47.4 9.34 73.8 9 101 C6.2375 102.38125 4.052689 102.190793 1 102 C-1.710742 99.289258 -1.241441 97.16084 -1.259949 93.479599 C-1.254329 92.562637 -1.24871 91.645676 -1.24292 90.700928 C-1.244818 89.736638 -1.246717 88.772349 -1.248672 87.778839 C-1.252388 84.580342 -1.241666 81.382071 -1.230469 78.183594 C-1.229277 75.969244 -1.228824 73.754893 -1.22908 71.540543 C-1.227514 66.895893 -1.219214 62.25132 -1.205811 57.606689 C-1.188811 51.638605 -1.184996 45.670605 -1.185756 39.702498 C-1.185484 35.12933 -1.18001 30.556181 -1.172754 25.983019 C-1.169561 23.781679 -1.167599 21.580338 -1.166861 19.378996 C-1.164704 16.309186 -1.155975 13.239468 -1.145264 10.169678 C-1.145717 9.250692 -1.14617 8.331706 -1.146637 7.384872 C-1.114474 1.114474 -1.114474 1.114474 0 0 Z " fill="#96989A" transform="translate(556,381)"/>
<path d="M0 0 C0 0.66 0 1.32 0 2 C0.718008 2.073477 1.436016 2.146953 2.175781 2.222656 C5.767628 3.211284 7.49279 4.889552 10.1875 7.4375 C11.477207 8.642129 11.477207 8.642129 12.792969 9.871094 C14.207157 11.235222 15.610616 12.610616 17 14 C17 14.99 17 15.98 17 17 C17.66 17 18.32 17 19 17 C19 17.99 19 18.98 19 20 C19.66 20 20.32 20 21 20 C24.090862 25.668482 26.487192 30.461697 27 37 C27.245566 38.165957 27.245566 38.165957 27.496094 39.355469 C29.558068 50.176838 27.433469 61.416559 22 71 C20 73 20 73 18 74 C17.853047 74.601992 17.706094 75.203984 17.554688 75.824219 C15.715652 83.0379 7.886798 87.862751 1.90625 91.460938 C-10.494552 98.028029 -24.782915 100.147314 -38.5625 97 C-47.699566 94.143821 -56.426991 88.837044 -62 81 C-63.206563 79.855312 -63.206563 79.855312 -64.4375 78.6875 C-70.583186 72.242025 -75.710286 64.373704 -76.125 55.25 C-76.063125 54.13625 -76.063125 54.13625 -76 53 C-76.2475 51.855312 -76.2475 51.855312 -76.5 50.6875 C-78.885912 37.863223 -74.114685 26.476073 -67 16 C-65.107052 13.457427 -63.223967 11.275687 -61 9 C-60.34 9 -59.68 9 -59 9 C-58.67 8.01 -58.34 7.02 -58 6 C-55 4 -55 4 -52 4 C-52 3.34 -52 2.68 -52 2 C-34.642717 -7.135412 -17.864364 -8.889032 0 0 Z M-47.617188 9.695312 C-50 11 -50 11 -53 12 C-54.75993 14.112504 -56.361415 16.19461 -57.9375 18.4375 C-58.384805 19.069141 -58.832109 19.700781 -59.292969 20.351562 C-62.718508 25.318594 -65.159248 30.2423 -67 36 C-67.4125 37.03125 -67.825 38.0625 -68.25 39.125 C-69.916574 45.513536 -69.121904 50.846478 -67 57 C-66.615215 58.160156 -66.615215 58.160156 -66.222656 59.34375 C-62.078826 70.868221 -53.941647 79.975993 -43.1875 85.8125 C-34.703133 89.762343 -23.669083 91.930799 -14.503906 89.277344 C-11.939754 88.289285 -9.477999 87.187295 -7 86 C-6.093789 85.579766 -5.187578 85.159531 -4.253906 84.726562 C1.361307 82.052088 1.361307 82.052088 6 78 C6.66 77.34 7.32 76.68 8 76 C15.159699 65.842398 20.665105 55.747841 20 43 C16.996166 28.069178 10.556597 17.47978 -2 9 C-7.3028 5.746243 -11.799366 4.442902 -18 4 C-18 3.34 -18 2.68 -18 2 C-29.903215 1.456198 -37.352432 3.817204 -47.617188 9.695312 Z " fill="#939598" transform="translate(739,386)"/>
<path d="M0 0 C2.866208 1.375596 4.851515 2.62659 7.015625 4.96875 C7.808398 5.825332 7.808398 5.825332 8.617188 6.699219 C9.156016 7.293477 9.694844 7.887734 10.25 8.5 C10.804297 9.094258 11.358594 9.688516 11.929688 10.300781 C16 14.742034 16 14.742034 16 17 C16.835312 17.309375 16.835312 17.309375 17.6875 17.625 C20.287953 19.171215 21.847529 21.069173 23.714844 23.421875 C25.641413 25.787632 27.817253 27.871822 30 30 C31.666667 31.666667 33.333333 33.333333 35 35 C35.752813 35.741211 36.505625 36.482422 37.28125 37.246094 C38.095937 38.051758 38.910625 38.857422 39.75 39.6875 C40.917891 40.837988 40.917891 40.837988 42.109375 42.011719 C44 44 44 44 45 46 C47.224375 48.282912 49.479634 50.515522 51.8125 52.6875 C53 54 53 54 53 56 C53.556875 56.20625 54.11375 56.4125 54.6875 56.625 C57.287953 58.171215 58.847529 60.069173 60.714844 62.421875 C63.451523 65.782418 66.683997 68.698042 69.8125 71.6875 C72 74 72 74 72 76 C72.804375 76.309375 72.804375 76.309375 73.625 76.625 C76 78 76 78 82 84 C82.33 56.61 82.66 29.22 83 1 C85.31 1 87.62 1 90 1 C91.953653 2.953653 91.120221 5.933998 91.12442 8.534012 C91.119027 9.945256 91.119027 9.945256 91.113525 11.38501 C91.113671 12.370266 91.113817 13.355523 91.113968 14.370636 C91.113268 17.644248 91.105474 20.917804 91.097656 24.191406 C91.095792 26.454422 91.094368 28.717438 91.093369 30.980453 C91.089542 36.949789 91.079711 42.919101 91.068665 48.888428 C91.058453 54.974443 91.053871 61.060463 91.048828 67.146484 C91.038089 79.097667 91.021011 91.048831 91 103 C89.68 103.33 88.36 103.66 87 104 C86.608125 103.443125 86.21625 102.88625 85.8125 102.3125 C82.93849 98.645659 79.551213 95.526715 76.1875 92.3125 C74 90 74 90 74 88 C73.401875 87.773125 72.80375 87.54625 72.1875 87.3125 C70 86 70 86 68.75 83.8125 C66.667738 80.466008 64.195565 78.434583 61.207031 75.90625 C58.890859 73.905733 56.685241 71.830046 54.5 69.6875 C53.829687 69.031367 53.159375 68.375234 52.46875 67.699219 C51 66 51 66 51 64 C49.4828 62.465426 49.4828 62.465426 47.5 60.875 C44.417444 58.243818 41.412712 55.569089 38.5 52.75 C37.829687 52.105469 37.159375 51.460938 36.46875 50.796875 C35 49 35 49 35 46 C34.46375 45.79375 33.9275 45.5875 33.375 45.375 C30.08022 43.467496 27.406364 40.951806 25 38 C25 37.34 25 36.68 25 36 C24.401875 35.7525 23.80375 35.505 23.1875 35.25 C20.683731 33.819275 19.519276 32.430842 18 30 C18 29.34 18 28.68 18 28 C17.443125 27.773125 16.88625 27.54625 16.3125 27.3125 C13.363052 25.638489 11.324773 23.450437 9 21 C8.67 20.67 8.34 20.34 8 20 C8.002221 20.997805 8.004441 21.99561 8.006729 23.023651 C8.026972 32.411927 8.041978 41.800198 8.051812 51.18849 C8.057038 56.01548 8.064131 60.842453 8.075439 65.669434 C8.086279 70.324852 8.092279 74.980254 8.094877 79.635685 C8.09673 81.414748 8.100347 83.19381 8.10573 84.972866 C8.112954 87.458331 8.11399 89.943725 8.113525 92.429199 C8.117121 93.170068 8.120716 93.910936 8.12442 94.674255 C8.114052 99.771896 8.114052 99.771896 7 102 C5.000453 102.042544 2.999584 102.040808 1 102 C-0.953653 100.046347 -0.120221 97.066002 -0.12442 94.465988 C-0.120825 93.525159 -0.11723 92.58433 -0.113525 91.61499 C-0.113671 90.629734 -0.113817 89.644477 -0.113968 88.629364 C-0.113268 85.355752 -0.105474 82.082196 -0.097656 78.808594 C-0.095792 76.545578 -0.094368 74.282562 -0.093369 72.019547 C-0.089542 66.050211 -0.079711 60.080899 -0.068665 54.111572 C-0.058453 48.025557 -0.053871 41.939537 -0.048828 35.853516 C-0.038089 23.902333 -0.021011 11.951169 0 0 Z " fill="#929496" transform="translate(414,381)"/>
<path d="M0 0 C3.5 0.125 3.5 0.125 4.5 1.125 C4.583779 3.296896 4.596277 5.471557 4.581787 7.64502 C4.578721 8.326425 4.575654 9.007831 4.572495 9.709885 C4.565322 11.195163 4.555923 12.680431 4.5446 14.165684 C4.527254 16.520039 4.516923 18.874326 4.508682 21.228729 C4.484199 27.925012 4.448842 34.621205 4.404053 41.317383 C4.377174 45.409874 4.360191 49.502312 4.349184 53.594875 C4.342996 55.152118 4.333018 56.709351 4.319105 58.266544 C4.299752 60.453968 4.292973 62.641115 4.288818 64.828613 C4.281361 66.07136 4.273904 67.314107 4.26622 68.594513 C4.685095 74.920264 6.478068 81.124438 10.5 86.125 C16.904168 91.628809 24.311151 93.529547 32.625 92.9375 C40.109244 91.91955 46.611837 88.988263 51.5 83.125 C52.91343 80.200129 53.785069 77.287194 54.5 74.125 C54.673459 73.393799 54.846919 72.662599 55.025635 71.909241 C55.577867 68.667968 55.612082 65.619845 55.597656 62.331055 C55.596196 61.668688 55.594736 61.006321 55.593231 60.323883 C55.589441 58.893778 55.583342 57.463678 55.575165 56.033592 C55.562365 53.772975 55.555877 51.512417 55.551025 49.25177 C55.539623 44.459487 55.520356 39.667252 55.5 34.875 C55.476428 29.307857 55.456049 23.740742 55.444061 18.173561 C55.437557 15.941578 55.425054 13.709678 55.412354 11.477722 C55.408723 10.118938 55.405371 8.760153 55.402344 7.401367 C55.397107 6.210656 55.39187 5.019945 55.386475 3.793152 C55.5 1.125 55.5 1.125 56.5 0.125 C60 0 60 0 63.5 0.125 C65.387218 2.012218 64.63772 5.288431 64.645264 7.796875 C64.648622 8.494575 64.651981 9.192275 64.655441 9.911118 C64.664987 12.23243 64.666897 14.55367 64.667969 16.875 C64.671181 18.488688 64.674546 20.102377 64.678055 21.716064 C64.684057 25.109056 64.685894 28.502023 64.685303 31.89502 C64.685202 36.224607 64.698794 40.554028 64.716075 44.883575 C64.72725 48.222643 64.72922 51.561672 64.728693 54.900757 C64.729867 56.495408 64.734257 58.09006 64.742025 59.684692 C64.843541 82.697659 64.843541 82.697659 56.5 92.125 C47.014917 100.434513 37.784559 102.9242 25.375 102.46875 C15.397241 101.583626 7.772737 96.577782 0.898438 89.46875 C-6.253066 80.602558 -4.782959 67.952782 -4.730469 57.214844 C-4.729275 55.594854 -4.728824 53.974864 -4.72908 52.354874 C-4.727526 48.982062 -4.719308 45.609357 -4.705811 42.236572 C-4.688699 37.905374 -4.685 33.574292 -4.685756 29.243064 C-4.685485 25.908624 -4.680016 22.57421 -4.672754 19.239779 C-4.669567 17.641314 -4.6676 16.042847 -4.666861 14.44438 C-4.664705 12.223204 -4.655981 10.002155 -4.645264 7.781006 C-4.641452 6.516551 -4.63764 5.252097 -4.633713 3.949326 C-4.436694 -0.21217 -4.281874 0.152924 0 0 Z " fill="#939499" transform="translate(328.5,381.875)"/>
<path d="M0 0 C4.166532 -0.087778 8.332823 -0.140653 12.5 -0.1875 C13.673047 -0.212637 14.846094 -0.237773 16.054688 -0.263672 C25.437337 -0.342739 32.3857 0.802106 39.460938 7.328125 C45.309207 13.681067 46.148063 20.489792 46.0625 28.875 C46.053477 30.027422 46.044453 31.179844 46.035156 32.367188 C46.023555 33.236016 46.011953 34.104844 46 35 C45.34 35 44.68 35 44 35 C44.33 35.99 44.66 36.98 45 38 C42.059787 44.002015 37.984532 49.504988 31.605469 51.898438 C27.533648 53.198081 24.311259 54 20 54 C20 54.99 20 55.98 20 57 C20.66 57 21.32 57 22 57 C22 57.99 22 58.98 22 60 C22.66 60.33 23.32 60.66 24 61 C34 72.662651 34 72.662651 34 77 C34.66 77 35.32 77 36 77 C37.322473 78.760319 38.557641 80.586571 39.75 82.4375 C42.75785 87.089495 45.838736 91.658186 49.066406 96.160156 C49.374492 96.767305 49.682578 97.374453 50 98 C49.505 99.485 49.505 99.485 49 101 C45.9375 101.5 45.9375 101.5 42 101 C34.83059 95.37477 29.115703 85.435197 26 77 C25.34 77 24.68 77 24 77 C22.379664 74.969377 20.89898 72.952772 19.4375 70.8125 C19.025645 70.234355 18.613789 69.656211 18.189453 69.060547 C15.866986 65.696581 14.652306 63.009115 14 59 C13.34 58.67 12.68 58.34 12 58 C10.875 55.9375 10.875 55.9375 10 54 C9.34 54 8.68 54 8 54 C7.67 69.51 7.34 85.02 7 101 C5.02 101 3.04 101 1 101 C-0.942973 99.057027 -0.120203 96.114958 -0.12442 93.529449 C-0.120825 92.597971 -0.11723 91.666492 -0.113525 90.706787 C-0.113671 89.731284 -0.113817 88.755781 -0.113968 87.750717 C-0.113268 84.50957 -0.105474 81.26848 -0.097656 78.027344 C-0.095792 75.786749 -0.094368 73.546153 -0.093369 71.305557 C-0.089542 65.395405 -0.079711 59.485277 -0.068665 53.575134 C-0.058453 47.549442 -0.053871 41.523745 -0.048828 35.498047 C-0.038089 23.665354 -0.021011 11.832679 0 0 Z M7 8 C6.975351 13.251054 6.957164 18.502075 6.945068 23.753174 C6.940028 25.54094 6.933195 27.328702 6.924561 29.116455 C6.912483 31.680512 6.906769 34.244514 6.902344 36.808594 C6.897182 37.612762 6.892021 38.416931 6.886703 39.245468 C6.886508 41.164017 6.93798 43.082454 7 45 C9.011042 47.011042 12.938056 46.185065 15.6875 46.1875 C16.75001 46.205869 16.75001 46.205869 17.833984 46.224609 C23.728734 46.240938 28.260006 45.659064 32.6875 41.4375 C36.169212 36.843886 37.631844 31.577092 38.4375 25.9375 C37.477819 19.493925 34.15094 13.980272 29 10 C23.794465 8.012432 19.27627 7.921443 13.714844 7.957031 C12.456638 7.963235 11.198433 7.969438 9.9021 7.97583 C8.46556 7.987794 8.46556 7.987794 7 8 Z " fill="#939598" transform="translate(783,382)"/>
<path d="M0 0 C0.850494 0.002221 1.700988 0.004441 2.577255 0.006729 C4.018636 0.006842 4.018636 0.006842 5.489136 0.006958 C7.056306 0.0147 7.056306 0.0147 8.655136 0.022598 C9.719131 0.024013 10.783127 0.025428 11.879364 0.026886 C15.292931 0.032504 18.706433 0.045059 22.11998 0.057755 C24.427922 0.062767 26.735864 0.067331 29.043808 0.071426 C34.715054 0.082479 40.386262 0.099235 46.05748 0.120255 C46.05748 2.760255 46.05748 5.400255 46.05748 8.120255 C32.52748 8.120255 18.99748 8.120255 5.05748 8.120255 C5.38748 19.010255 5.71748 29.900255 6.05748 41.120255 C8.789003 41.108653 11.520527 41.097051 14.334824 41.085098 C16.969181 41.077308 19.603537 41.071231 22.2379 41.065323 C24.074169 41.060282 25.910433 41.05345 27.746689 41.044815 C30.380244 41.032738 33.013746 41.027024 35.647324 41.022598 C36.473366 41.017437 37.299408 41.012276 38.150482 41.006958 C40.119844 41.006762 42.089096 41.058213 44.05748 41.120255 C45.05748 42.120255 45.05748 42.120255 45.18248 45.620255 C45.05748 49.120255 45.05748 49.120255 44.05748 50.120255 C41.173368 50.2089 38.312652 50.23554 35.428574 50.217911 C34.280079 50.2164 34.280079 50.2164 33.108383 50.214859 C30.237234 50.209611 27.366105 50.19565 24.49498 50.182755 C18.080605 50.16213 11.66623 50.141505 5.05748 50.120255 C5.05748 63.980255 5.05748 77.840255 5.05748 92.120255 C18.58748 92.120255 32.11748 92.120255 46.05748 92.120255 C46.05748 94.760255 46.05748 97.400255 46.05748 100.120255 C45.05748 101.120255 45.05748 101.120255 43.152924 101.240509 C42.320194 101.238288 41.487465 101.236068 40.629501 101.23378 C39.688602 101.233704 38.747702 101.233629 37.77829 101.233551 C36.755383 101.22839 35.732477 101.223228 34.678574 101.217911 C33.636774 101.216496 32.594975 101.215081 31.521606 101.213623 C28.179369 101.208005 24.837197 101.19545 21.49498 101.182755 C19.235215 101.177742 16.975449 101.173178 14.715683 101.169083 C9.162926 101.15803 3.610208 101.141275 -1.94252 101.120255 C-3.664976 97.675342 -3.08037 93.704078 -3.071915 89.912979 C-3.073667 88.958443 -3.075419 88.003908 -3.077225 87.020447 C-3.081638 83.854479 -3.078707 80.688567 -3.075333 77.522598 C-3.076006 75.330668 -3.076976 73.138738 -3.078232 70.946808 C-3.079708 66.349261 -3.077556 61.751734 -3.072891 57.15419 C-3.067191 51.246645 -3.070476 45.339145 -3.076464 39.431602 C-3.080068 34.904761 -3.078931 30.377932 -3.076336 25.851091 C-3.075667 23.672079 -3.076495 21.493066 -3.078815 19.314054 C-3.081341 16.275388 -3.077503 13.236796 -3.071915 10.198135 C-3.073939 9.2885 -3.075963 8.378865 -3.078049 7.441666 C-3.053201 0.189013 -3.053201 0.189013 0 0 Z " fill="#959799" transform="translate(909.9425201416016,381.87974548339844)"/>
<path d="M0 0 C1.1579 -0.003152 2.315801 -0.006304 3.508789 -0.009552 C4.76917 -0.007528 6.029551 -0.005504 7.328125 -0.003418 C8.611709 -0.004375 9.895293 -0.005331 11.217773 -0.006317 C13.938163 -0.007794 16.65852 -0.005641 19.378906 -0.000977 C22.872972 0.004721 26.36696 0.001442 29.861023 -0.004549 C33.183397 -0.009023 36.505749 -0.005894 39.828125 -0.003418 C41.088506 -0.005442 42.348887 -0.007466 43.647461 -0.009552 C44.805361 -0.0064 45.963262 -0.003248 47.15625 0 C48.181377 0.000796 49.206504 0.001591 50.262695 0.002411 C52.578125 0.129395 52.578125 0.129395 53.578125 1.129395 C53.703125 4.129395 53.703125 4.129395 53.578125 7.129395 C52.578125 8.129395 52.578125 8.129395 50.261475 8.24292 C49.261243 8.237683 48.261011 8.232446 47.230469 8.227051 C46.150879 8.223828 45.071289 8.220605 43.958984 8.217285 C42.822676 8.208906 41.686367 8.200527 40.515625 8.191895 C39.375449 8.187383 38.235273 8.182871 37.060547 8.178223 C34.233021 8.166392 31.405599 8.149909 28.578125 8.129395 C28.582566 9.265008 28.587007 10.400622 28.591583 11.570648 C28.632063 22.253934 28.662078 32.937205 28.681749 43.62055 C28.692203 49.11344 28.70639 54.606267 28.729004 60.099121 C28.750677 65.396446 28.762682 70.693712 28.767879 75.991077 C28.771585 78.015763 28.778821 80.040445 28.789585 82.065105 C28.804027 84.893086 28.806106 87.720817 28.805176 90.548828 C28.812366 91.392555 28.819557 92.236281 28.826965 93.105576 C28.806229 98.90129 28.806229 98.90129 26.578125 101.129395 C23.578125 101.379395 23.578125 101.379395 20.578125 101.129395 C17.959424 98.510694 18.342039 96.670432 18.329285 93.105576 C18.336475 92.261849 18.343666 91.418122 18.351074 90.548828 C18.350782 89.660961 18.35049 88.773094 18.350189 87.858322 C18.351586 84.914727 18.367163 81.971383 18.382812 79.027832 C18.386541 76.990449 18.389389 74.953065 18.391388 72.91568 C18.399034 67.546377 18.418691 62.177182 18.440796 56.807922 C18.461233 51.331761 18.470385 45.855583 18.480469 40.379395 C18.501936 29.62934 18.537126 18.879393 18.578125 8.129395 C10.328125 8.129395 2.078125 8.129395 -6.421875 8.129395 C-6.421875 0.004984 -6.421875 0.004984 0 0 Z " fill="#989A9C" transform="translate(842.421875,381.87060546875)"/>
<path d="M0 0 C2.817898 1.767156 3.805658 3.02635 4.863281 6.199219 C5.502656 6.446719 6.142031 6.694219 6.800781 6.949219 C9.424648 8.539441 9.727481 10.079062 10.481689 12.966309 C11.255195 17.492531 11.065094 22.060243 10.988281 26.636719 C10.947031 30.122344 10.905781 33.607969 10.863281 37.199219 C-2.006719 37.199219 -14.876719 37.199219 -28.136719 37.199219 C-28.260469 33.259844 -28.384219 29.320469 -28.511719 25.261719 C-28.566343 24.038479 -28.620967 22.815239 -28.677246 21.554932 C-28.793882 13.828762 -27.374698 8.966037 -22.136719 3.199219 C-16.084686 -1.864727 -7.462197 -2.796619 0 0 Z " fill="#FDBA0F" transform="translate(775.13671875,69.80078125)"/>
<path d="M0 0 C0.023121 13.021106 0.040914 26.042208 0.051812 39.063331 C0.057042 45.108878 0.06414 51.154412 0.075439 57.199951 C0.086266 63.028943 0.092276 68.857921 0.094877 74.686922 C0.096732 76.916176 0.100353 79.145429 0.10573 81.374678 C0.112938 84.485397 0.113991 87.59606 0.113525 90.706787 C0.117121 91.638266 0.120716 92.569744 0.12442 93.529449 C0.114052 99.885948 0.114052 99.885948 -1 101 C-3.9375 101.1875 -3.9375 101.1875 -7 101 C-9.702265 98.297735 -9.236644 96.202117 -9.24884 92.531952 C-9.24165 91.62277 -9.234459 90.713588 -9.227051 89.776855 C-9.227343 88.820714 -9.227635 87.864572 -9.227936 86.879456 C-9.226539 83.708608 -9.21096 80.537994 -9.195312 77.367188 C-9.191584 75.172863 -9.188736 72.978537 -9.186737 70.78421 C-9.17909 65.000625 -9.159433 59.21714 -9.137329 53.433594 C-9.116893 47.53517 -9.10774 41.63673 -9.097656 35.738281 C-9.076188 24.15881 -9.042039 12.579413 -9 1 C-6.043355 -0.478323 -3.257703 -0.060328 0 0 Z " fill="#949699" transform="translate(534,382)"/>
<path d="" fill="#808080" transform="translate(0,0)"/>
<path d="" fill="#808080" transform="translate(0,0)"/>
<path d="" fill="#808080" transform="translate(0,0)"/>
<path d="" fill="#FFFFFF" transform="translate(0,0)"/>
<path d="" fill="#808080" transform="translate(0,0)"/>
<path d="" fill="#FFFFFF" transform="translate(0,0)"/>
<path d="" fill="#FFFFFF" transform="translate(0,0)"/>
<path d="" fill="#808080" transform="translate(0,0)"/>
<path d="" fill="#008080" transform="translate(0,0)"/>
<path d="" fill="#008080" transform="translate(0,0)"/>
<path d="" fill="#008080" transform="translate(0,0)"/>
<path d="" fill="#007F7F" transform="translate(0,0)"/>
<path d="" fill="#008080" transform="translate(0,0)"/>
</svg>
