<svg version="1.2" xmlns="http://www.w3.org/2000/svg" viewBox="0 0 72 72" width="72" height="72"><style>.a{fill:#25bd55}.b{fill:none;stroke:#288847;stroke-linecap:round;stroke-linejoin:round}</style><path class="a" d="m47 45.4c0 0 19.1 2.2 21.3 0v-1.2c0 0 3.4-3.3 1.1-4.4-2.2-1.2-5.6 0-5.6 0 0 0-3.2-1.5-7.2-5.3 0 0-1.8-1.5-4 0.8 0 0-2.2-3.4-9-3.4-6.7 0-26.9 1.1-26.9 1.1 0 0-6.7-1.1 0-3.3 6.7-2.3 12.3-2.3 13.5 0 0 0-3-9.5-19.5-5.9 0 0-14.2 3.6-6.3 17.1 0 0 2.2 4.5 8.9 4.5z"/><path class="a" d="m21.2 39.8c0 0-5.4 4.4-3.8 5.6 1.5 1.1 3.8 3.3 3.8 3.3h4.5l-3.4-3.3c0 0 2.3-1.2 3.4-3.4 1.1-2.2 0-3.6 0-3.6"/><path class="a" d="m40.3 39.8c0 0-5.4 4.4-3.9 5.6 1.6 1.1 3.9 3.3 3.9 3.3h4.5l-3.5-3.3c0 0 2.3-1.2 3.5-3.4 1.1-2.2 0-3.6 0-3.6"/><path fill-rule="evenodd" class="b" d="m27.9 45.4h4.5"/><path class="b" d=""/><path fill-rule="evenodd" class="b" d="m47 45.4c0 0 19.1 2.2 21.3 0v-1.2c0 0 3.4-3.3 1.1-4.4-2.2-1.2-5.6 0-5.6 0 0 0-3.2-1.5-7.2-5.3 0 0-1.8-1.5-4 0.8 0 0-2.2-3.4-9-3.4-6.7 0-26.9 1.1-26.9 1.1 0 0-6.7-1.1 0-3.3 6.7-2.3 12.3-2.3 13.5 0 0 0-3-9.5-19.5-5.9 0 0-14.2 3.6-6.3 17.1 0 0 2.2 4.5 8.9 4.5"/><path fill-rule="evenodd" class="b" d="m21.2 39.8c0 0-5.4 4.4-3.8 5.6 1.5 1.1 3.8 3.3 3.8 3.3h4.5l-3.4-3.3c0 0 2.3-1.2 3.4-3.4 1.1-2.2 0-3.6 0-3.6"/><path fill-rule="evenodd" class="b" d="m40.3 39.8c0 0-5.4 4.4-3.9 5.6 1.6 1.1 3.9 3.3 3.9 3.3h4.5l-3.5-3.3c0 0 2.3-1.2 3.5-3.4 1.1-2.2 0-3.6 0-3.6"/></svg>